<svg xmlns="http://www.w3.org/2000/svg" style="display:block" viewBox="0 0 2048 2048"><title>vector_illustration vector illustration</title><path fill="url(#Gradient8)" d="M1018.15 897.843c1.31-2.614 2.19-5.282 4.97-6.605 7.22 2.275 9.26 12.113 14.17 17.356 10.72 17.579 22.66 34.413 33.91 51.655l70.32 107.801c8.94 13.65 30.95 42.47 35.92 54.83 10.7 10.53 23.78 35.24 32.42 48.6l83.68 129.74 47.24 71.78c4.63 7.2 11.42 14.8 15.07 22.35l-1.17.3c-10.6-6.47-22.23-11.12-33.21-16.93-37.98-20.12-76.48-39.03-114.62-58.8a5495 5495 0 0 0-116.48-60.07c-21.59-11.08-43.87-24.17-66.51-32.87l-1.26-.47c-7.46 5.28-16.6 9.13-24.776 13.24a3741 3741 0 0 0-46.747 23.66 15200 15200 0 0 1-151.987 77.86c-36.421 18.3-73.293 36.13-109.096 55.61 22.435-29.98 41.669-62.63 62.025-94.07 39.756-61.38 79.232-123.3 120.338-183.77 6.322-12 15.342-23.63 22.817-35.01l47.571-72.57 52.138-79.43c6.737-10.226 14.817-25.769 23.267-34.187"/><path fill="url(#Gradient7)" d="M1018.15 897.843c1.31-2.614 2.19-5.282 4.97-6.605 7.22 2.275 9.26 12.113 14.17 17.356 10.72 17.579 22.66 34.413 33.91 51.655l70.32 107.801c8.94 13.65 30.95 42.47 35.92 54.83.14.57.27 1.15.43 1.71 1.17 4.11 8.37 11.44 6.49 15.25l-2.57.49-2.99 5.01c-11.74 1.79-22.29-.52-33.91-1.05-3.81-.17-7.62.92-11.33-.06l-2.8-1.08c-4.32 1.29-8.76-.1-12.76 1.39l-.64-.38-4.5-.21.14-2.67c-1.97-.79-3.01-.76-5.09-.66-5.65.27-11.69-.82-17.4-1.03-10.49-.4-20.64.61-31 2.12l-1.44 2.12c-2.37-.91-3.18-1.77-5.06-3.43l.17-2.26c-3.24.17-6.73.81-9.74-.61l-.09-.73 1.92-2.19c-2.42-.07-2.85-.2-4.89 1.05l-1.1 2.96c-2.68-.67-2.35-1.92-4.3-2.71-1.22-.49-27.37 3.35-31.47 3.44-1.38.03-2.69.27-4.041.56l-.729 1.67c16.25.49 32.5.42 48.74-.21l.87 1.65c-2.16 1.42-5.37.75-7.95.51-.56.05-1.12.05-1.67.14-14.46 2.25-31.33.17-46.103.01-3.948-.02-7.91.2-11.856.34l-1.436-.49.25-1.85c-15.453 4.99-48.294 1.79-65.89 2.23-.944-.67-2.577-.5-3.704-.57-2.54-.15-4.33-.02-6.515-1.55l.33-1.08c1.914-.33 3.282-.42 4.816-1.73.294-.25.54-.55.809-.83-3.155-1.63-5.364-.88-8.62-1.74-2.562-.67-3.952-.52-6.517.03-.914 1.07-1.641 1.38-1.581 2.89.084 2.12 1.017 3.54 1.97 5.39-1.736.99-2.715 1.17-4.707 1.19-.532-1.16-.088-.52-1.813-1.49-1.44 2.38-2.64 3.56-5.515 4.14-1.791.37-2.757-.13-4.29-1.04-1.766-1.04-1.201-.53-1.794-2.63 3.572-1.83 4.256 1.71 7.915.38l-.292-.99c-3.24-.78-5.188-1.75-7.89-3.68 1.47-.71.785-.19 1.949-1.67-1.363-1.96-1.482-1.94-3.781-2.65-3.417-3.56-2.189-12.43-2.108-17.24 6.322-12 15.342-23.63 22.817-35.01l47.571-72.57 52.138-79.43c6.737-10.226 14.817-25.769 23.267-34.187"/><path fill="#1f64a8" d="m1055.83 1062 1.89 2.18c1.45-1.02 2.15-1.79 3.25-3.13 1.3.29 1.91.35 2.97 1.22l3.57 1.78c.15 2.37-.16 2.88 1.3 4.85 2.18-1.18 1.32-.28 2.32-2.7.65-1.54 1.12-2.5 2.45-3.58 6.44-1.15 35.87-1.93 41.42.38l-.5 1.02c-2.59.03-6.86-.57-9.14.38.98 1.59 1.87 1.72 3.5 2.56l-.64.94c-6.2 1.07-12.16 1.06-18.42.82l.28 1.22c8.6 1.62 25.47-2.85 32.39 1.74-1.12 2.04-.36 1.17-2.32 2.58 3.12.06 6-.53 8.59 1.28l.25 1.72c.31.16.6.35.92.48 3.54 1.39 7.22-.33 10.24 2.05-2.38 1.2-49.53-.77-57.11-.34l.6 1.14c1.72 3.18 2.72 4.24 5.36 6.59.54.48 1.36 1.6 1.83 2.21l-2.02.32c-1.73.29-2.69.5-3.96 1.79l.34.88c10.54-.03 23.17-1.51 33.35.55l.95 1.57c-3.98 1.81-11.92.89-16.33.43l-.87.7 2.7 1.21c.27 2.36.37 1.35.01 3.04l.51 3.14c-3.49.95-5.75-1.66-9.21-.46-.48 1.76-.92 3.49-1.27 5.27.56.13 1.12.25 1.68.38 1.57.38 2.81.78 4.27 1.43-1.79 1.4-2.79 1.37-4.99 1.7l-2.98-1.33c-2.94 3.52-11.25 2.76-11.97 7.05-4.48 2-12.94 1.82-17.76.95l-.91-.9 1.04-2.47-2-1.49-1.44.61c.18 4.05.61 5.82 3.21 9.05-1.83-.41-1.19-.15-2.68-.85-12.13-5.74-23.33-1.4-28.63-3.38-2.71-1.01-2.73-2.52-6.31-3.08l-.72-1.03c1.86-.73 3.82.51 5.68 1.16l1.75-1.03-2.11-1.05 2.31-.6.36-.87c-4.19-1.43-8.78-1.13-13.17-1.21l5.51-1.21.27-1.12-4.2-2.34c-6.93 4.33-49.226 1.09-60.819 2.15-4.85-.1-10.739-.24-15.3-1.82 3.986-.93 7.849-.84 11.908-.83l-.704-1.15-.801-1.7c-3.779-1.44-7.467-2.26-11.434-3.01.32-2.39 3.572-3.12 4.734-5.83l.501-.89-.708-1.01c-4.298-.33-8.46-.63-12.777-.41l-.656-3.31-2.021-.35c-1.714 2.03-1.562 2.16-4.176 2.45-1.568-2.48-.984-3.51-.652-6.36-5.345-1.3-10.566 1.34-16.068.54l.008-1.37c6.718-.41 10.876-4.93 16.96-6.91 2.886-.94 5.223.76 7.673 2.13.364.2.724.41 1.086.62 2.001-.27 4.04-.43 5.931-1.18.285-.11.553-.26.829-.39l-1.979-1.16-.059-1.47 3.121-1.01c3.339-3.34 13.778-2.2 18.768-2.34 4.259.02 13.746.7 17.149-1.68.698-.49 1.353-1.04 2.082-1.48l1.082-.64c17.182 2 34.902-.8 52.102 1.1 1.38.16.78.13 2.36-.08l.69-.97c1.39 1.12 2.63 2.17 4.47 2.37 4.88.52 18.2-.6 21.76-3.62-5.63-.91-11.3.16-17.02-.82l.05-1.28c2.15-.88 4.32-1.71 6.5-2.49"/><path fill="#234b9a" d="m1074.08 1095.54 2.6 1.63c.39-.11.78-.26 1.18-.35 7.37-1.74 16.78-1.27 24.43-1.19l2.7 1.21c.27 2.36.37 1.35.01 3.04l.51 3.14c-3.49.95-5.75-1.66-9.21-.46-.48 1.76-.92 3.49-1.27 5.27.56.13 1.12.25 1.68.38 1.57.38 2.81.78 4.27 1.43-1.79 1.4-2.79 1.37-4.99 1.7l-2.98-1.33c-2.94 3.52-11.25 2.76-11.97 7.05-4.48 2-12.94 1.82-17.76.95l-.91-.9 1.04-2.47-2-1.49-1.44.61c.18 4.05.61 5.82 3.21 9.05-1.83-.41-1.19-.15-2.68-.85-12.13-5.74-23.33-1.4-28.63-3.38-2.71-1.01-2.73-2.52-6.31-3.08l-.72-1.03c1.86-.73 3.82.51 5.68 1.16l1.75-1.03-2.11-1.05 2.31-.6.36-.87c-4.19-1.43-8.78-1.13-13.17-1.21l5.51-1.21.27-1.12-4.2-2.34c-6.93 4.33-49.226 1.09-60.819 2.15-4.85-.1-10.739-.24-15.3-1.82 3.986-.93 7.849-.84 11.908-.83l3.326.06c-.197-3.5-.778-6.96-1.287-10.42 3.024 1.54 4.247 1.75 7.574 1.53 5.098-.34 10.292.27 15.421.11 20.367-.63 40.637-.91 61.017-.94 10.21-.01 20.86.7 31-.5"/><path fill="#1f64a8" d="m1070.79 1107.93-.65-2.83c-9.02-5.57-17.81-3.37-27.9-3.18-4.63.08-14.09 1.13-17.57-2.24 11.17 1.48 29.08-1.95 41.46-.19 1.75.25 2.76.54 4.53.1.34-.08.65-.24.98-.36 1.42.01 2.76-.29 3.99.45 9.69-.27 19.6.34 29.37.2l.51 3.14c-3.49.95-5.75-1.66-9.21-.46-.48 1.76-.92 3.49-1.27 5.27.56.13 1.12.25 1.68.38 1.57.38 2.81.78 4.27 1.43-1.79 1.4-2.79 1.37-4.99 1.7l-2.98-1.33c-6.6.18-12.81 2.7-19.52 2.5l-.26-.95 4.32-2.85c-1.57-1.12-3-.38-4.85-.14l-1.27 2.06c-4.52.7-9.1 1.16-13.67.84l.63-1.06c4.96-2.11 6.98-3.66 12.4-2.48m-109.36-2.69c1.572-2.42 2.106-3.47 5.07-3.94 9.523-1.51 39.68-1.41 48.87.67l.75 1.54-.78 1.68c-17.891-.68-36.09 1.52-53.91.05m94.4-43.24 1.89 2.18c1.45-1.02 2.15-1.79 3.25-3.13 1.3.29 1.91.35 2.97 1.22l3.57 1.78c.15 2.37-.16 2.88 1.3 4.85 2.18-1.18 1.32-.28 2.32-2.7.65-1.54 1.12-2.5 2.45-3.58 6.44-1.15 35.87-1.93 41.42.38l-.5 1.02c-2.59.03-6.86-.57-9.14.38.98 1.59 1.87 1.72 3.5 2.56l-.64.94c-6.2 1.07-12.16 1.06-18.42.82l.28 1.22c8.6 1.62 25.47-2.85 32.39 1.74-1.12 2.04-.36 1.17-2.32 2.58-10.54-1.38-20.83-1.45-31.41-.44-13.71-.91-27.76-.34-41.5-.26-18.06.11-36.11-.07-54.176.27-15.74-.14-31.474.34-47.227.1 3.339-3.34 13.778-2.2 18.768-2.34 4.259.02 13.746.7 17.149-1.68.698-.49 1.353-1.04 2.082-1.48l1.082-.64c17.182 2 34.902-.8 52.102 1.1 1.38.16.78.13 2.36-.08l.69-.97c1.39 1.12 2.63 2.17 4.47 2.37 4.88.52 18.2-.6 21.76-3.62-5.63-.91-11.3.16-17.02-.82l.05-1.28c2.15-.88 4.32-1.71 6.5-2.49"/><path fill="#197bb7" d="M1088.74 1073.82c10.58-1.01 20.87-.94 31.41.44 3.12.06 6-.53 8.59 1.28l.25 1.72c-13.1-.73-28.1-1.82-41.11-.47-7.1-1.48-14.81-.46-22.05-.35-9.94.15-19.89-.23-29.84.04-11.06.3-22.79 1.58-33.77.47-2.749-.28-5.391-.38-8.152-.36-2.434.75-3.82.57-6.296.3-9.68-1.03-20.769-.41-30.446.49-4.176-.38-8.392-.01-12.572.19l-1.979-1.16-.059-1.47 3.121-1.01c15.753.24 31.487-.24 47.227-.1 18.066-.34 36.116-.16 54.176-.27 13.74-.08 27.79-.65 41.5.26"/><path fill="#214695" d="M968.579 1111.96c3.952-1.55 44.191-1.28 51.081-1.09 4.39.08 8.98-.22 13.17 1.21l-.36.87-2.31.6 2.11 1.05-1.75 1.03c-1.86-.65-3.82-1.89-5.68-1.16l.72 1.03c3.58.56 3.6 2.07 6.31 3.08 5.3 1.98 16.5-2.36 28.63 3.38 1.49.7.85.44 2.68.85-2.6-3.23-3.03-5-3.21-9.05l1.44-.61 2 1.49-1.04 2.47.91.9c4.82.87 13.28 1.05 17.76-.95 2.59-.26 3.21-.86 5.47.62l-1.02.5c5.44.2 33.11 2.67 35.91 1.16.29.17.56.38.86.52 1.66.79 2.99.48 4.76.31l1 1.3c-2.3 2.25-13.37 1.85-17.61 3.31-.11.04-.24.02-.36.02l-.54-.91c-1.92.96-1.61 1.62-2.27 3.57-5.31.4-12.07-.15-17.15 1.06l.61 1.18c1.46-.52 1.83-.86 3.4-.56 3.86.74 31.13 3.26 34.12 1.93 2.15-.96 6.12-3.98 7.78-2.46l-.05 2.52 1.87.99c-.29 2.13-1.93 5.12-3.68 6.46-.51.39-1.1.66-1.65.98l2.31.61-1.33 1.91-2.71 1.07c-4.32 1.29-8.76-.1-12.76 1.39l-.64-.38-4.5-.21.14-2.67c-1.97-.79-3.01-.76-5.09-.66-5.65.27-11.69-.82-17.4-1.03-10.49-.4-20.64.61-31 2.12l-1.44 2.12c-2.37-.91-3.18-1.77-5.06-3.43l.17-2.26c-3.24.17-6.73.81-9.74-.61l-.09-.73 1.92-2.19c-2.42-.07-2.85-.2-4.89 1.05l-1.1 2.96c-2.68-.67-2.35-1.92-4.3-2.71-1.22-.49-27.37 3.35-31.47 3.44-1.38.03-2.69.27-4.041.56l-.729 1.67c16.25.49 32.5.42 48.74-.21l.87 1.65c-2.16 1.42-5.37.75-7.95.51-.56.05-1.12.05-1.67.14-14.46 2.25-31.33.17-46.103.01-3.948-.02-7.91.2-11.856.34l-1.436-.49.25-1.85c-15.453 4.99-48.294 1.79-65.89 2.23-.944-.67-2.577-.5-3.704-.57-2.54-.15-4.33-.02-6.515-1.55l.33-1.08c1.914-.33 3.282-.42 4.816-1.73.294-.25.54-.55.809-.83l1.631 2.31c3.038.16 6.04.17 9.081.12.948-.47 1.185-.51 2.036-1.37 1.762-1.77 2.64-4.67 2.898-7.05-3.538-3.16-10.239-.22-13.111-3.6 1.848-2.1 9.609-.48 13.079-1.85 1.851-.73 1.598-1.54 2.228-3.28-5.814.31-9.628.39-14.899-2.14 3.119-2.34 24.024-1.86 28.716-2.05l2.021-1.8 1.354.96c.576-.1 1.149-.22 1.726-.3 4.396-.69 7.382.6 11.432 1.84.835.26 1.946.41 2.832.55 2.299-1.78 4.447-3.7 7.217-4.69 3.33.73 5.086 3.3 8.058 4.72-.031-.33-.005-.67-.092-.99-1.084-3.97-3.84-5.56-7.059-7.57"/><path fill="#234b9a" d="M960.455 1120.49c2.299-1.78 4.447-3.7 7.217-4.69 3.33.73 5.086 3.3 8.058 4.72-2.271 2.01-4.288 2.15-7.161 2.55-4.638 0-9.424-.1-13.929 1.17l-.831-1.66c1.921-1.59 4.224-1.61 6.646-2.09"/><path fill="#197bb7" d="m985.78 1030.29 1.478.36.457 4.36c8.395 3.75 38.605.23 49.955 1l-.73 1.44c-1.28.51-2.9.65-3.47 1.95 2.77 1.51 7.69 1.4 10.83.68 5.91.66 17.01 3.36 22.49 1.49a17.7 17.7 0 0 1 2.75 3.24l-8.59 1.45-.94 1.53-4.83.16-.08 1.95c2.88-.88 4.61-.34 7.39.43.48.65 1.14 1.29 1.3 2.09.45 2.16.64 3.23-.15 5.31l.91 1.9-.86 1.63.25 1.01c-1.06-.87-1.67-.93-2.97-1.22-1.1 1.34-1.8 2.11-3.25 3.13l-1.89-2.18c-2.18.78-4.35 1.61-6.5 2.49l-.05 1.28c5.72.98 11.39-.09 17.02.82-3.56 3.02-16.88 4.14-21.76 3.62-1.84-.2-3.08-1.25-4.47-2.37l-.69.97c-1.58.21-.98.24-2.36.08-17.2-1.9-34.92.9-52.102-1.1l-1.082.64c-.729.44-1.384.99-2.082 1.48-3.403 2.38-12.89 1.7-17.149 1.68-.304-.08-.637-.09-.911-.25-2.631-1.48-3.352-2.47-6.53-2.99-1.901-.32-3.377-.57-5.159-1.38 2.959-2.15 24.84-1.27 30.623-1.87l-3.156-.31c9.396-1.18 19.949-.27 29.038-2.23l-.03-3.78c-11.656-.44-23.318-.8-34.982-1.07-1.487-.06-2.984-.16-4.472-.19-7.279-.12-22.779-1.46-28.106-6.61 6.199-2.08 13.026.07 19.49-1.85-.777-1.73-1.002-2.44-1.157-4.39 7.666-1.59 15.407 2.61 23.318.52 7.544-2 20.399 1.26 25.799-1.49l-.35-1.12c-6.75-.01-12.51-1.61-18.845-3.68-1.537 1.35-.7.77-2.512 1.75-.186-3.46-.48-6.92-.883-10.36"/><path fill="#158ac1" d="M1006.93 1046.06c12.05-.27 44.29-3.35 54.02.2l-.94 1.53-4.83.16c-15.63-.4-31.62.99-47.16-.32zm-15.372-38.95c.334-1.46.151-.86.7-2.36.872-2.4.696-3.59 3.08-4.71l3.451 3.01c.695.95.134.38 2.271.76 1.25-1.47 2.4-2.67 3.93-3.853l2.57 1.883c5.79.47 13.87 1.37 18.91-1.928 4.84-.172 9.8.298 14.6-.278.47.17.94.376 1.42.506 2.38.68 3.76.29 6.12-.158 2.05.868 2.55.998 3.46 3.208.89 2.15 1.29 6.07.37 8.24-.42.99-.65.89-1.62 1.52-1.29.84-.9.42-1.45 1.13l1.18.44-1.19.23c1.53 1.54 1.68 1.11 1.74 3.46l-3.59 2.76c.27.16.54.3.8.46 1.35.81.89.53 2.33 1.78l-1.04 1.31-2.42-.34c-1.07 1.89-1.55 3.12-1.78 5.28l1.38 1.01c.99-1.67 1.89-3.36 2.79-5.08l1.46-.04 1.48 1.77-1.11.69c-1.51.98-.94.53-2.15 1.73l.81 1.66c14.19-.72 24.76.92 38.32 4.95-2.49 2.92-7.75 4.53-11.39 5.81l.05 1.27 2.12-.48c1.64.71 3.3.81 3.98 2.53-3.09.27-5.96.27-9.05.08-1.47-.3-3.07-.38-4.55-.55a17.7 17.7 0 0 0-2.75-3.24c-5.48 1.87-16.58-.83-22.49-1.49-3.14.72-8.06.83-10.83-.68.57-1.3 2.19-1.44 3.47-1.95l.73-1.44c-11.35-.77-41.56 2.75-49.955-1l-.457-4.36-1.478-.36 1.405-4.19.218-1.15c6.706-3.44 12.321-3.37 19.717-3.76 1.24-1.78 1.06-1.8 1.22-3.8-4.67-2.67-11.097.89-16.108-2.12-1.709-1.77-2.767-3.15-3.804-5.38l.798-1.09 2.126 1.5z"/><path fill="#197bb7" d="M991.558 1007.11c.334-1.46.151-.86.7-2.36.872-2.4.696-3.59 3.08-4.71l3.451 3.01c.695.95.134.38 2.271.76 1.25-1.47 2.4-2.67 3.93-3.853l2.57 1.883c5.79.47 13.87 1.37 18.91-1.928 4.84-.172 9.8.298 14.6-.278.47.17.94.376 1.42.506 2.38.68 3.76.29 6.12-.158 2.05.868 2.55.998 3.46 3.208.89 2.15 1.29 6.07.37 8.24-.42.99-.65.89-1.62 1.52-1.29.84-.9.42-1.45 1.13l1.18.44-1.19.23c-3.12.44-6.11.86-9.27.81-8.91.17-17.83.23-26.72.87 3.97 1.82 26.53 2.2 27.71 4.96-12.54 2.86-25.59-1.28-37.25 6.34-2.03-1.42-8.504-.2-11.323-.73-1.802-.34-3.5-.65-5.322-.9l.218-1.15c6.706-3.44 12.321-3.37 19.717-3.76 1.24-1.78 1.06-1.8 1.22-3.8-4.67-2.67-11.097.89-16.108-2.12-1.709-1.77-2.767-3.15-3.804-5.38l.798-1.09 2.126 1.5z"/><path fill="#158ac1" d="m1007.37 1007.48.82.12c4.8.62 11.37-1.18 15.6.66l-.11 3.3c-1.7.29-2.21.13-3.87-.14-9.32-1.52-19.31 1.11-28.458-1.12l.206-3.19c5.381.77 10.382 1.23 15.812.37m-17.449-39.329c-3.654-.281-5.595-.838-8.724-2.772 3.398-2.003 13.046-.385 16.893.629 1.438.379 2.44.95 3.73 1.618 1.38.709 2.59.874 4.09 1.106l.53 3.443c1.81 1.028 2.84 1.042 4.9.974-2.17-.84-1.39-.142-2.48-1.916 7.31-3.276 29.39-1.561 37.82-.433l-.44.776-7.04.239c-.94 1.697-1.17 2.265-1.41 4.275 1.57 1.065 2.75.644 4.6.619l-.27.062.98 2.914c-1.3 1.202-2.45 2.368-3.95 3.318 3.79 3.771 13.95 3.232 19.31 3.684 1.86-1.52 1.16-.565 2.03-2.918l1.57.467c-.12 2.271-.67 4.035-1.36 6.183.69 1.614.39 1.964 2.19 2.602 3.17 1.123 6.24.605 9.23 2.3-2.71.224-5.13.523-7.81-.18l-1.03.451-.85 2.261c-7.46 2.367-13.88-.46-21.25.243l-.11 1.538c-4.8.576-9.76.106-14.6.278-5.04 3.298-13.12 2.398-18.91 1.928l-2.57-1.883c-1.53 1.183-2.68 2.383-3.93 3.853-2.137-.38-1.576.19-2.271-.76-.73-4.36-1.684-5.985-4.612-9.181l-.72-.151c-.136-.269-.206-.584-.408-.808-1.025-1.136-1.421-1.295-2.156-2.697.153-2.624.409-4.724-.701-7.198-.265-.957-.763-1.906-1.158-2.819a64 64 0 0 1-5.271-1.025l5.981-2.111c-2.446-2.406-7.281-.833-10.478-3.026l-.084-1.98c3.808-1.883 7.553 1.45 12.487-1.412z"/><path fill="#197bb7" d="M1039.12 995.66c7.9-1.451 16.16-.037 24.16-.068l-.85 2.261c-7.46 2.367-13.88-.46-21.25.243z"/><path fill="#1f64a8" d="M910.7 1105.88c-4.413-.14-11.549.92-15.157-1.5l-.194-1.3c5.233-1.31 11.697-.04 17.107.17 14.025.06 27.895-.02 41.851 1.26.67.06 1.346.02 2.018.04l.704 1.15c-4.059-.01-7.922-.1-11.908.83 4.561 1.58 10.45 1.72 15.3 1.82 11.593-1.06 53.889 2.18 60.819-2.15l4.2 2.34-.27 1.12-5.51 1.21c-6.89-.19-47.129-.46-51.081 1.09 3.219 2.01 5.975 3.6 7.059 7.57.087.32.061.66.092.99-2.972-1.42-4.728-3.99-8.058-4.72-2.77.99-4.918 2.91-7.217 4.69-.886-.14-1.997-.29-2.832-.55-4.05-1.24-7.036-2.53-11.432-1.84-.577.08-1.15.2-1.726.3l-1.354-.96-2.021 1.8c-3.069-.62-6.393-.75-9.521-1.05.004-.01.009-.01.011-.02l.323-.95 1.94.84c-.667-.04-1.321-.2-1.979-.32l2.344.06.252-.37-2.414-.3.812-.59-2.52-.63-.464-1.39-1.165-.57c-9.018 2.57-21.013-2.16-30.643-2.17h-1.544l-1.243-1.26c2.066-2.86 10.636-2.49 14.573-4.24.286-.13.565-.27.848-.4"/><path fill="#234b9a" d="M935.84 1091.7c4.317-.22 8.479.08 12.777.41l.708 1.01-.501.89c-1.162 2.71-4.414 3.44-4.734 5.83 3.967.75 7.655 1.57 11.434 3.01l.801 1.7c-.672-.02-1.348.02-2.018-.04-13.956-1.28-27.826-1.2-41.851-1.26l-.574-1.03c1.613-4.78 13.511-.15 17.707-2.78l-.246-.94c-1.609-.99-2.694-1.64-4.627-1.68-5.887-.12-11.079-1.21-16.829-2.46 4.837.19 9.308.02 14.113-.51.21-.19.395-.41.63-.58 3.103-2.14 9.534-1.78 13.21-1.57"/><path fill="#197bb7" d="M935.84 1091.7c4.317-.22 8.479.08 12.777.41l.708 1.01-.501.89c-8.156 2.83-18.139-.14-26.824-.16.21-.19.395-.41.63-.58 3.103-2.14 9.534-1.78 13.21-1.57m143.32-48.95c2.65-1.06 2.97-.07 5.27-.38 2.41-.32 3.58-2.81 6.63-2.85 4.5-.07 10.37-1.54 14.61-.12-.95 2.03-.31 1.16-1.9 2.63-.01 2.33.73 5.93-.97 7.56-2.97 2.84-8.02 5.08-12.13 5.07-2.96-1.59-2.42-3.3-4.27-4.72-3.21-2.45-12.16 3.82-15.7-.91l3.39-3.67c3.09.19 5.96.19 9.05-.08-.68-1.72-2.34-1.82-3.98-2.53m-84.983-48.881c-1.783 1.109-3.269 1.759-5.426 1.752-4.351-.013-7.285-.786-10.351-4.05-.672-2.233-1.339-3.519.338-5.606 2.756-3.428 7.506-2.881 11.454-2.95 1.11 2.474.854 4.574.701 7.198.735 1.402 1.131 1.561 2.156 2.697.202.224.272.539.408.808z"/><path fill="#0fb1d7" d="M1018.15 897.843c1.31-2.614 2.19-5.282 4.97-6.605 7.22 2.275 9.26 12.113 14.17 17.356-.95.291-2.06.678-3.05.769-2.42.223-6.37-1.16-7.99-2.953-2.53-2.818-2.13-7.251-1.86-10.713l.1-1.169c-2.13 1.07-4.25 2.174-6.34 3.315"/><path fill="#158ac1" d="M992.232 1015.27c5.011 3.01 11.438-.55 16.108 2.12-.16 2 .02 2.02-1.22 3.8-1.77-.43-1.13-.34-2.71-.49-5.414-.52-12.24-.78-17.096-3.32l.289-.99z"/><path fill="#234b9a" d="M1134.8 1140.17c4.31-1.06 10.46-1.71 14.67-.16l.54 1.26c-4.24 1.94-11.94 1.6-16.54.81z"/><path fill="#0fb1d7" d="m1029.2 953.286-1.6-1.827c2.72-1.999 8.11-1.089 11.42-.594 2.58.387 5.36.512 7.46 2.171l.3 1.024-.86 1.995c-6.07 1.757-15.8 3.141-21.59.047 1.39-2.166 2.53-2.039 4.87-2.816"/><path fill="#158ac1" d="m1029.2 953.286-1.6-1.827c2.72-1.999 8.11-1.089 11.42-.594 2.58.387 5.36.512 7.46 2.171l.3 1.024c-5.9.042-11.75.292-17.58-.774m-50.359 72.924.75-.12c1.059 2.93.6 5.73.463 8.8-1.594-1.34-3.09-2.68-4.974-3.6-1.649-.81-4.072.56-5.792 1.12l-4.324-.12c-.062-.29-.109-.59-.187-.87-.038-.14-.106-.27-.159-.4 4.522-2.47 9.276-3.53 14.223-4.81m69.799-59.723c3.55-1.24 10.7-.545 14.14.869-1.12 1.795-3.32 1.791-5.32 2.323-4.85-.377-9.45-.456-14.32-.278l-.23-1.17-1.61.619c1.97-.474 3.82-.964 5.7-1.707z"/><path fill="#214695" d="M1140.98 1115.81c5.78.88 11.43 1.87 17.13 3.22l-.54 1.29c-3.84 1.29-13.43.28-17.19-1.51z"/><path fill="#0fb1d7" d="M1018.78 937.208c3.42.219 17.12.216 19.13 2.443-4.47.159-9.66.937-14.05.566-3.16-.266-3.22-.633-5.08-3.009"/><path fill="#214695" d="m998.74 1141.58.729-1.67c1.351-.29 2.661-.53 4.041-.56 4.1-.09 30.25-3.93 31.47-3.44 1.95.79 1.62 2.04 4.3 2.71l1.1-2.96c2.04-1.25 2.47-1.12 4.89-1.05l-1.92 2.19.09.73c3.01 1.42 6.5.78 9.74.61l-.17 2.26c1.88 1.66 2.69 2.52 5.06 3.43l1.44-2.12c10.36-1.51 20.51-2.52 31-2.12 5.71.21 11.75 1.3 17.4 1.03 2.08-.1 3.12-.13 5.09.66l-.14 2.67 4.5.21.64.38c4-1.49 8.44-.1 12.76-1.39l2.8 1.08c-1.75.63-2.93.89-4.28 2.2 4.17 2.01 9.27-.79 11.63 4.09.19.4.18.87.27 1.31 4.09.06 8.17.07 12.26.04 1.51-.81 2.93-1.53 4.55-2.09l1.85 1.48-.14 1.38c-3.68 2.92-2.24 4.94-3.69 6.35-2.72 2.64-14.34-.1-18.45.69l.34 3.15c2.13 1.07 3.04.51 5.25.08 4.75-.92 8.43.66 12.84 2.27-.28 1.78-.03.77-.97 2.99l.22-1.38-1.36 2.22c.74 1.99.96 1.73 2.24 3.12.12.13.17.3.25.45l-.29 2.73c-1.86 1.24-3.82 2.89-5.97 3.53l-1.24 1.67-2.67 3.33c-1.41-1.24-1.78-1.43-3.69-2.03l-1.96 2.63-1.52.03c.42-1.63.58-2.66.6-4.39l-1.69.01c-.77 2.12-.93 3.1-2.69 4.59-2.34-.62-2.3-2.94-4.86-3.26-5.67-.69-9.17.38-15.06-1.72l-1.85.06-1.5.73c-10.93 1.86-21.96.61-32.99.49-3.7-.27-7.45.04-11.15.22l-1.53-.76c-.28.11-.56.24-.85.32-5.18 1.48-10.04-.4-14.92 2.82-5.16 1.06-15.09.55-20.12-.8-2.18-.58-1.4-.04-2.54-1.92l2.1-2.65c-1.05-.1-1.78-.14-2.78-.33-3.62-.73-6.25-2.45-8.36-5.4l-2.6-1.64-5.65 2.91c.38.33.75.67 1.15.98 1.49 1.16 2.16 1.36 3.96 1.62l.95 1.66c-1.85 2.27-3.74 2.37-6.63 2.7-5.9.68-12.265.6-18.207.49l-1.889.57.252 1.37c-3.332 1.5-7.508-.46-11.113-.22-7.305.49-15.421 3.19-22.685 1.3-.504.12-1.006.26-1.512.38-1.648.39-3.202.63-4.879.82l-1.441 1.76-2.934.79-.068 1.18c9.384 2.45 23.206 1.15 33.018 1.05-8.136 2.46-19.274-.81-26.381 2.25l-.902 2.21-.654-.6c-1.778-1.57-3.387-3.04-5.968-2.82-1.227.1-2.523.4-3.072 1.59-1.476 3.2 1.354 9.8-.595 11.97-.726-1.52-.785-2.22-.894-3.86-2.269-1.02-2.832-1.02-5.311-.08-.794.31-1.739.89-2.488 1.33-.322-.08-.642-.15-.965-.22-1.324-.26-.792-.25-2.027.02-3.004 2.09-6.077 1.69-9.573 1.68-.242-.03-.484-.1-.727-.08-2.659.25-3.945.81-6.658.1-2.475-1.97-3.635-3.98-4.151-7.09-.576-1.3-1.421-2.44-2.198-3.64-2.614 3.53-2.967 5.04-7.538 5.64-1.195.16-2.437.15-3.638.18-.133 1.59-.013 2.57.48 4.08l-5.434-5.92-1.034 1.87c-.287-2.04-1.183-2.15-2.713-3.41l-1.377-.16-1.606-2.2c.619-1.16.952-2.38 1.36-3.62-1.434-2.15-1.652-1.75-4-2.42l-1.739.06c1.966-2.17 1.229-7.69 1.21-10.63 3.855-6.38 9.71-2.44 15.589-4.93l-.71-2.8 2.115-1.7c-6.364-1.27-12.794-.67-19.247-1.06.096-.82.467-1.66.728-2.45 6.227-1.83 12.032-.81 18.404-.78l-.762-4.61c-.047-.99.485-2.28.751-3.25l-.181-2.49-1.093-.81c-2.434-1.77-3.939-3-5.587-5.64 1.992-.02 2.971-.2 4.707-1.19-.953-1.85-1.886-3.27-1.97-5.39-.06-1.51.667-1.82 1.581-2.89 2.565-.55 3.955-.7 6.517-.03 3.256.86 5.465.11 8.62 1.74-.269.28-.515.58-.809.83-1.534 1.31-2.902 1.4-4.816 1.73l-.33 1.08c2.185 1.53 3.975 1.4 6.515 1.55 1.127.07 2.76-.1 3.704.57 17.596-.44 50.437 2.76 65.89-2.23l-.25 1.85 1.436.49c3.946-.14 7.908-.36 11.856-.34 14.773.16 31.643 2.24 46.103-.01.55-.09 1.11-.09 1.67-.14 2.58.24 5.79.91 7.95-.51l-.87-1.65c-16.24.63-32.49.7-48.74.21"/><path fill="#234b9a" d="m998.74 1141.58.729-1.67c1.351-.29 2.661-.53 4.041-.56 4.1-.09 30.25-3.93 31.47-3.44 1.95.79 1.62 2.04 4.3 2.71l1.1-2.96c2.04-1.25 2.47-1.12 4.89-1.05l-1.92 2.19.09.73c3.01 1.42 6.5.78 9.74.61l-.17 2.26c1.88 1.66 2.69 2.52 5.06 3.43l1.44-2.12c10.36-1.51 20.51-2.52 31-2.12 5.71.21 11.75 1.3 17.4 1.03 2.08-.1 3.12-.13 5.09.66l-.14 2.67 4.5.21.64.38c4-1.49 8.44-.1 12.76-1.39l2.8 1.08c-1.75.63-2.93.89-4.28 2.2 4.17 2.01 9.27-.79 11.63 4.09.19.4.18.87.27 1.31 4.09.06 8.17.07 12.26.04l-1.75 3.03c-6.8 1.07-16.29 1.83-23.01 0-2.66.25-5.4.36-8.01.89l1.08 3.4c3.3 1.24 10.88 1.61 12.64 3.8-1.9.95-1.32.92-3.21 1.02-6.87.4-13.56-1.05-20.37-1.1-5.75-.05-12.17 1.91-17.78.66 1-2.1 4.22-2.97 5.85-5.72 6.59 1.42 14.28.75 20.89-.3l-2.7-1.78c-4.85-1.59-37.86-1.76-42.53-.12-7.61.8-29.67 1.43-36.84.71l-.49-1.7-1.44-.63c-3.97 2-5.69 2.33-10.02 1.97-2.78-.22-5.06.43-7.76.79-.87.12-2.08.1-2.99.09-8.9-2.12-36.802-1.72-46.485-.65-1.976.22-3.99-.4-5.904-.85.376 3.06 1.426 5.79 2.453 8.67l-10.388-.95c-5.276-.52-9.494.22-14.613 1.45-.345-1.74-.345-2.88-.25-4.62l1.596-.51.341.77c5.354-1.12 10.277 1.2 15.537.62 1.867-.21 1.605-.47 2.708-1.82l-.652-2.79c-3.275-1.23-3.38.54-6.387.9-2.53.31-7.137-1.07-9.81-1.47-.351-1.36-.687-2.38-1.23-3.64l-1.752.49c.129.45.22.92.387 1.36.204.53.481 1.04.722 1.56l-1.608.97c-3.155-.34-5.723-.7-8.835.23l-.5 2.39c-.681 3.31-.655 4.3-3.021 6.84-3.483.4-6.079-1-8.853-3.16-1.161.2-2.303.25-3.34.83-1.459-.49-2.231-.75-3.78-.48-3.023.52-7.967 1.08-10.887.07-1.435-.49-2.083-.51-3.601-.38l-.762-4.61c-.047-.99.485-2.28.751-3.25l-.181-2.49-1.093-.81c-2.434-1.77-3.939-3-5.587-5.64 1.992-.02 2.971-.2 4.707-1.19-.953-1.85-1.886-3.27-1.97-5.39-.06-1.51.667-1.82 1.581-2.89 2.565-.55 3.955-.7 6.517-.03 3.256.86 5.465.11 8.62 1.74-.269.28-.515.58-.809.83-1.534 1.31-2.902 1.4-4.816 1.73l-.33 1.08c2.185 1.53 3.975 1.4 6.515 1.55 1.127.07 2.76-.1 3.704.57 17.596-.44 50.437 2.76 65.89-2.23l-.25 1.85 1.436.49c3.946-.14 7.908-.36 11.856-.34 14.773.16 31.643 2.24 46.103-.01.55-.09 1.11-.09 1.67-.14 2.58.24 5.79.91 7.95-.51l-.87-1.65c-16.24.63-32.49.7-48.74.21"/><path fill="#214695" d="M1060.87 1144.84c9.76-2.57 40.67-.84 51.99-.89l4.5.21-1.08 2.08c-17.35 2-36.22.71-53.74.88zm-164.033 10.01c.354.14.699.3 1.061.42 4.533 1.48 7.17.1 11.256-1.84l1.244.63c8.574 4.32 11.63.17 17.364 2.48-.483 1.47-.138 1.41-1.503 2.08-6.583 3.27-23.219 1.57-30.173-.52-.047-.99.485-2.28.751-3.25m142.283-3.74c.6-1.39 1.32-2.5 2.15-3.76 4.93 1.08 12.95-.59 16.96 1.64l-.39 1.23c-5.43 1.93-13 1.01-18.72.89"/><path fill="#234b9a" d="M993.222 1164.25c.804-1.79 1.853-2.77 3.158-4.24 4.77-1.58 9.91-.85 14.87-.6 5.77.6 11.54.42 17.33.37l-.29 2.03c.2.43.4.86.58 1.3.95 2.3.46.91.84 3.07.34 1.91 1.25 2.84 2.43 4.31 1.68.65 1.83 1.18 3.57.34 1.82-.87 1.18-.44 2.43-2.16-.47-.1-.95-.18-1.42-.29-1.46-.32-2.5-.69-3.82-1.34l.54-1.79c2.82.47 5.67.82 8.39 1.72 1.54.52 2.69.41 4.28.3 7.98 3.03 26.8 2.58 34.83-.27 8.03 4.1 11.34-1.67 14.68 1.01 2.63 2.12-.22 5.03 5.32 4.81 2.3-.09 2.47.45 4.49 1.16.67.23 2.17.49 2.93.63-1.21 1.36-2.43 2.59-3.74 3.85 1.61.06 3.05-.01 4.66-.12 1.79-.13 2.29-.06 3.78.8l.42.62-1.5.73c-10.93 1.86-21.96.61-32.99.49-3.7-.27-7.45.04-11.15.22l-1.53-.76c-.28.11-.56.24-.85.32-5.18 1.48-10.04-.4-14.92 2.82-5.16 1.06-15.09.55-20.12-.8-2.18-.58-1.4-.04-2.54-1.92l2.1-2.65c-1.05-.1-1.78-.14-2.78-.33-3.62-.73-6.25-2.45-8.36-5.4l-2.6-1.64-5.65 2.91c-.26-.64-.57-1.56-1.01-2.08-3.96-4.7-12.078-.33-17.225-1.66.366-1.63.77-3.21.857-4.89.015-.29.007-.58.01-.87"/><path fill="#29217a" d="M1057.62 1177.07c-.75.69-1.62 1.17-2.47 1.71-2.41-2.7-5.24-4.78-5.95-8.36 2.84-.6 5.25.89 7.8 2.01l1.42.24c4.74.72 7.83.6 12.51-.84.92 1.47 1.22 2.16 1.66 3.77l1.21-.43.95-2.66 1.22.17c.69 2.33.53 2.45-.35 4.74-4.73 2.6-12.22-1.93-18-.35"/><path fill="#2a2782" d="m918.71 1193.52 1.963.43c-1.229 2.68-1.475 2.79-4.04 4.3l2.375 1.59 2.03-1.26c.418.22.832.44 1.254.64 2.293 1.11 4.733 1.71 7.013 2.77-3.004 2.09-6.077 1.69-9.573 1.68-.242-.03-.484-.1-.727-.08-2.659.25-3.945.81-6.658.1-2.475-1.97-3.635-3.98-4.151-7.09 3.837-2.44 5.952-2.79 10.514-3.08"/><path fill="#29217a" d="M1144 1174.24c3.63-2.03 8.34-1.9 12.37-1.66l-.29 2.73c-1.86 1.24-3.82 2.89-5.97 3.53-.31-.38-.55-.81-.92-1.12-2.04-1.73-4.76-.91-7.18-.72-1.82.46-3.66.94-5.51 1.21-4.76.7-8.16-1.58-11.8-4.22 5.09-.52 9.42 1.81 14.12 1.31l1.21-2.34c2.26-.18 2.17-.12 3.97 1.28m-254.132 22.7.489-1.34c4.364-.94 7.935-3.17 11.792-5.32l4.074 1.23-.225 1.45c-2.614 3.53-2.967 5.04-7.538 5.64-1.195.16-2.437.15-3.638.18-.133 1.59-.013 2.57.48 4.08zm28.842-3.42c-2.432-.9-4.39-1.04-5.661-3.49-.213-.41-.35-.86-.525-1.28 2.367-2.06 4.958-2.11 8.036-1.89 2.933.21 5.464.55 8.112 1.84l.406 1.48c-.37.05-.742.09-1.11.16-1.631.3-2.742.89-4.227 1.57-.668.31-1.351.58-2.028.87l-.493-.97c-.8 1.37-.649.66-.547 2.14z"/><path fill="#234b9a" d="m1122 1171.99-3.89-.63c6.04-1.41 10.56-2.49 16.78-1.56 1.67 1.68.99.68 1.94 3.05 2.17.46 1.1.44 3.2.11l-1.21 2.34c-4.7.5-9.03-1.83-14.12-1.31-.69-.94-1.72-1.39-2.7-2"/><path fill="#29217a" d="m909.791 1172.02 1.976-1.55.592 1.07c-.775 2.12-2.913 6.28-2.689 8.43l-1.419 2.39c-3.535.88-6.085 1.58-9.683.76l-.013-1.36c1.155-.38 2.311-.82 3.494-1.1-1.612-.44-1.045-.4-2.458-.45-.797-.03-1.596-.02-2.393-.08-2.45-.16-4.606-.56-6.255-2.44l4.91-.86 1.329-1.48c2.179 1.16 4.371 1.81 6.723 2.5l2.014-1.94c2.122-1.02 2.702-1.88 3.872-3.89m74.719 1.48a2.4 2.4 0 0 1 2.616-.78 2.42 2.42 0 0 1 1.672 2.16c.058.99-.501 1.92-1.409 2.34a2.43 2.43 0 0 1-2.911-.72 2.416 2.416 0 0 1 .032-3"/><path fill="#29217a" d="m1016.24 1170.84 2.6 1.64c2.11 2.95 4.74 4.67 8.36 5.4 1 .19 1.73.23 2.78.33l-2.1 2.65c1.14 1.88.36 1.34 2.54 1.92 5.03 1.35 14.96 1.86 20.12.8 4.88-3.22 9.74-1.34 14.92-2.82.29-.08.57-.21.85-.32l1.53.76c3.7-.18 7.45-.49 11.15-.22 11.03.12 22.06 1.37 32.99-.49l1.5-.73 1.85-.06c5.89 2.1 9.39 1.03 15.06 1.72 2.56.32 2.52 2.64 4.86 3.26 1.76-1.49 1.92-2.47 2.69-4.59l1.69-.01c-.02 1.73-.18 2.76-.6 4.39l1.52-.03 1.96-2.63c1.91.6 2.28.79 3.69 2.03l2.67-3.33 1.09 2.58-2.23 1.78c1.73 1.47 3.26 1.41 5.44 1.82 1.49-1.16.84-.39 1.67-2.53l.73-.57c2.46 2.85 4.78 5.61 6.47 9 1.61.4 2.8 1.08 4.38.5 4.31-1.59 9.61-3.03 14.07-1.03 1.18.53 1.19.61 2.06 1.31.07.46.13.91.2 1.37.86 5.34 2.56 9.45 4.94 14.28l2.38 1.03c2.85-.72 2.86-.37 5.49 1.07.94 1.58 1.79 2.14 1.23 4.18-.13.48-1.23 2.17-1.53 2.63l-.88-.85c-6.55 4.41-19.26 1.38-26.96 1.69-.49.03-.95.26-1.42.39l-.94-.96.14-1.55 5.13-2.99c-1.71-1.26-1.88-1.36-3.82-1.65-3.52 2.57-5.61 3.83-9.97 3.49-.09-.6-.21-1.56-.44-2.11-2.03-4.87-12.85 2.32-21.28-1.45-.88.75-.22.26-2.21 1.03-.35-2.38-.27-1.42-.39-3.83-.11-2.08-.29-2.01-1.38-3.63-2.03.67-2.3 5.63-5.5 8.37-2.67-.46-2.42-.94-4.05-2.94-2.05.4-5.28.49-6.86 1.82-1.43-.44-2.41-.54-3.94-.52-3.26.04-36.45.29-36.88.16-.7-.2-1.18-.84-1.77-1.26-1.29-.76-2.75-1.33-4.1-1.96l.56-.89 3.27-.49c-1.49-1.71-3.78-2.09-5.89-2.85l-.21-1.1 2.35.11 5-4.05-.68-1.59-1.17-2.22c-5.06-3.08-11.15-1.04-16.71-1.14-2.14-.04-3.88-.01-6 .39-2.17.7-4.03 1.45-6.34.93-4.32-.97-9.09-1.06-13.21-2.63 2.94-3.69 9.1-.99 12.54-3.45.38-.28.73-.58 1.1-.87-.26-.27-.5-.56-.78-.79-1.37-1.12-2.41-.86-4.09-.71-4.08.36-8.13-.22-12.2-.63l-2.21 2.99c-.62-.23-1.24-.44-1.86-.69-4.38-1.8-6.97-2.34-11.8-2.29l-1.57 1.62c-3.1-1.33-6.22-.98-9.506-.91l.329 1.78c-4.419 2.17-14.881.63-20.101.5-9.812.1-23.634 1.4-33.018-1.05l.068-1.18 2.934-.79 1.441-1.76c1.677-.19 3.231-.43 4.879-.82.506-.12 1.008-.26 1.512-.38 7.264 1.89 15.38-.81 22.685-1.3 3.605-.24 7.781 1.72 11.113.22l-.252-1.37 1.889-.57c5.942.11 12.307.19 18.207-.49 2.89-.33 4.78-.43 6.63-2.7l-.95-1.66c-1.8-.26-2.47-.46-3.96-1.62-.4-.31-.77-.65-1.15-.98z"/><path fill="#2a2782" d="m1120.55 1185.03 1.87-.42c.77 1.24 1.57 2.48 2.29 3.75l.24 2.12 1.55.33c6.63 1.48 10.69 3.43 17.74 2.9l6.34 1.01c2.18.35 3.98.6 6.18.18.59-.11 1.16-.25 1.74-.37l-.31.36 1.32.32 2.53-2.62c1.61.4 2.8 1.08 4.38.5 4.31-1.59 9.61-3.03 14.07-1.03 1.18.53 1.19.61 2.06 1.31.07.46.13.91.2 1.37.86 5.34 2.56 9.45 4.94 14.28l2.38 1.03c2.85-.72 2.86-.37 5.49 1.07.94 1.58 1.79 2.14 1.23 4.18-.13.48-1.23 2.17-1.53 2.63l-.88-.85c-6.55 4.41-19.26 1.38-26.96 1.69-.49.03-.95.26-1.42.39l-.94-.96.14-1.55 5.13-2.99c-1.71-1.26-1.88-1.36-3.82-1.65-3.52 2.57-5.61 3.83-9.97 3.49-.09-.6-.21-1.56-.44-2.11-2.03-4.87-12.85 2.32-21.28-1.45-.88.75-.22.26-2.21 1.03-.35-2.38-.27-1.42-.39-3.83-.11-2.08-.29-2.01-1.38-3.63-2.03.67-2.3 5.63-5.5 8.37-2.67-.46-2.42-.94-4.05-2.94-2.05.4-5.28.49-6.86 1.82-1.43-.44-2.41-.54-3.94-.52-3.26.04-36.45.29-36.88.16-.7-.2-1.18-.84-1.77-1.26-1.29-.76-2.75-1.33-4.1-1.96l.56-.89 3.27-.49c-1.49-1.71-3.78-2.09-5.89-2.85l-.21-1.1 2.35.11 5-4.05c13.28 3.9 31.34 5.16 45.02 3.85l1.01-.76-2.92-3.09c-2.36-.73-2.9-.4-5.06.66-.38.19-.76.39-1.13.58-1.18-1.42-1.91-2.24-2.52-4.01 2.37-1.83 7.57-1.35 10.64-1.54 1.95-1.13 2.54-1.01 3.44-3.16-2.67-1.63-6.16-1.31-9.21-1.44 2.27-.32 3.71-.6 5.66-1.82-2.74-1.44-5.44-1.2-8.48-1.33 1.98-1.33 8.61-2.05 11.28-2.82"/><path fill="#282681" d="M1190.07 1210.05c2.85-.72 2.86-.37 5.49 1.07.94 1.58 1.79 2.14 1.23 4.18-.13.48-1.23 2.17-1.53 2.63l-.88-.85-.86-1.44c-6.59-.73-13.24.05-19.87.18l-1.94-1.98 1.31-1.63c.65.08 1.29.23 1.94.26 3.87.17 12.53.14 15.11-2.42"/><path fill="#2a2782" d="M948.546 1187.18c11.212 1.01 22.532.19 33.773.1 5.376-.04 10.68.63 16.015.64l.329 1.78c-4.419 2.17-14.881.63-20.101.5-9.812.1-23.634 1.4-33.018-1.05l.068-1.18zm122.424 8.92c4.2-.49 7.81-.77 12.03-.42 1.02.09 2.04.11 3.06.16l-.68 2.63c-4.37 1.38-8.77.03-13.24-.15zm-27.19-5.24c2.05-2.31 4.32-2.92 7.35-3.37 4.39-.65 18.62-.32 21.91 2.21-6.52 3.89-18.16 1.52-25.92 2-1.54.09-2.05-.08-3.34-.84"/><path fill="#282681" d="M1121.29 1210.94c1.63 2 1.38 2.48 4.05 2.94 3.2-2.74 3.47-7.7 5.5-8.37 1.09 1.62 1.27 1.55 1.38 3.63.12 2.41.04 1.45.39 3.83 1.99-.77 1.33-.28 2.21-1.03 8.43 3.77 19.25-3.42 21.28 1.45.23.55.35 1.51.44 2.11 4.36.34 6.45-.92 9.97-3.49 1.94.29 2.11.39 3.82 1.65l-5.13 2.99-.14 1.55.94.96c-4.79.99-9.6 2.29-14.36 3.2l8.15 2.26-.26 2.31c-7.94 2.7-18.98.61-27.61 2.22l-.92-.55-1.33 1.24c3.35 2.08 4.89 2.35 8.75 2.46 1.87.05 3.75.15 5.62.22l.34.94-4.56 2.78.7 1.19c2.62.44 5.21-.65 7.35-2.17.53-.39 1-.86 1.52-1.25 4.78-3.56 12.93-3.18 18.54-2.24l1.34 1.55-.43 2.01c9.21 1.4 22.1-.53 30.4 3.63l-.14.72c2.83.52 3.22.56 5.3 2.51l-.25 1.92c-2.47 1.02-4.79-1.01-7.79-.13l.04 1.32c2.57 1.4 3.38 1.36 4.45 4.17-1.01 2.2-2.6 4.21-3.27 6.47l-.35-1.71c-4.23-5.58-7.7-2.73-13.57-3.3-2.85-.28-5.85-2.31-8.31-3.69.03 2.2.05 4.24.4 6.42l-1.53 2.48-.9.06c-.08-.57-.09-1.16-.25-1.72-.12-.44-.94-2.05-1.16-2.51-2.15.72-3.01 1.51-4.7 2.96-2.43.31-4.78.54-7.23.64l-1.31 1.46c.71 2.94.96 3.64.13 6.5l-2.45 1.46c-2.09-2.5.13-5.77-3.34-6.22-4.28-.54-12.16 1.58-16.47 2.58-6.3-2.03-13.1-1.67-19.65-2.49.22-1.13.02-.57.87-1.83.23-.35.48-.68.72-1.02-1.15-1.19-2.3-2.35-3.48-3.5-.43-.01-.87.1-1.29-.01-2.26-.59-3.12-.91-5.53-.97-1.39-.03-1.72-.49-2.87-1.23l-.15-2.08 3.84-.82.76-1.69c-1.84-.01-.91.11-2.79-.39-.47-3-.5-5.47-.31-8.5-.08-1.17-.37-1.85-.81-2.92-1.97 1.55-2.04 5.1-2.94 7.52-4.2-11.19-17.61-.98-24.9-7 .42-2.92 2.27-4.58 4.13-6.73 1.3-1.5.83-.56 1.25-2.7-2.36-1.73-6.15-1.28-9.09-1.34l-.19-1.08 3.84-1.11-1.95-4.62c-1.69.58-7.29-1.32-9.26-1.74l-.2-.96c1.8-.45 2.67-.78 4.15-1.98.4-.33.77-.68 1.15-1.02.59.42 1.07 1.06 1.77 1.26.43.13 33.62-.12 36.88-.16 1.53-.02 2.51.08 3.94.52 1.58-1.33 4.81-1.42 6.86-1.82"/><path fill="#2a2782" d="M1137.83 1216.42c3.63-.33 9.19-1.44 12.69-.51 2.58.68 2.72 1.58 3.95 3.78-2.95.07-6 .09-8.94-.26-3.57-.44-5.49-.13-7.7-3.01m37.52 30.82c2.46 1.38 5.46 3.41 8.31 3.69 5.87.57 9.34-2.28 13.57 3.3l-3.78 2.52c-1.2-1.02-1.91-1.73-2.84-2.93-1.1.48-2.2.95-3.27 1.5-2.07 2.54-4.15 4.83-6.53 7.09l-.14 1.22 4.24 1.74c-5.14 1.67-10.71.51-16.21 2.37 11.77-.35 35.48-1.89 45.77 1.46l.31.82c-19.34.43-63.08 4.71-79.54-.55l-.44-1.27c1.99-1.38 9.47-2.46 9.92-4.14-2.75-1.68-5.03-2.17-8.18-2.71 4.31-1 12.19-3.12 16.47-2.58 3.47.45 1.25 3.72 3.34 6.22l2.45-1.46c.83-2.86.58-3.56-.13-6.5l1.31-1.46c2.45-.1 4.8-.33 7.23-.64 1.69-1.45 2.55-2.24 4.7-2.96.22.46 1.04 2.07 1.16 2.51.16.56.17 1.15.25 1.72l.9-.06 1.53-2.48c-.35-2.18-.37-4.22-.4-6.42m-167.51-58.41 1.57-1.62c4.83-.05 7.42.49 11.8 2.29.62.25 1.24.46 1.86.69l2.21-2.99c4.07.41 8.12.99 12.2.63 1.68-.15 2.72-.41 4.09.71.28.23.52.52.78.79-.37.29-.72.59-1.1.87-3.44 2.46-9.6-.24-12.54 3.45 4.12 1.57 8.89 1.66 13.21 2.63 2.31.52 4.17-.23 6.34-.93-2.79 3.53-14.77 10.95-19.41 14.4l-1.25-.29c1.05-1.96 3.18-3.13 4.46-5.11-.37-.07-.74-.18-1.12-.22-3.31-.36-8.63.49-11.35 2.35 1.14 1.99.85.97 1.03 3.02-3.65 1.53-7.6-1.72-11.57-.6-1.55.44-2.43.73-4.08.82l-.38-1.25 3.76-1.07c-.93-3.39-3.72-5.57-5.43-8.61 1.91-1.7 2.4-.16 4.62-.3 2.6-.17 3.1-2.83 5.37-3.85 2.04 1.17 2.83 1.71 5.23 1.88 2.18-1.44 3.04-2.33 4.21-4.67-3.54-2.42-10.18-.72-14.51-3.02m-130.478 16.18 3.123-.47c.827-3.25.559-6.78.569-10.14l2.084-1.36 1.606 2.2 1.377.16c1.53 1.26 2.426 1.37 2.713 3.41l1.034-1.87 5.434 5.92-3.112 1.72c.024.41.073.81.073 1.21-.002 3.18-.546 6.25-2.821 8.46-1.912-.5-4.832-3.27-4.901-3.24l-.774 3.29c-2.409-1.67-3.535-5.39-4.473-8.15l-.844.38z"/><path fill="#234b9a" d="M877.716 1165.94c6.453.39 12.883-.21 19.247 1.06l-2.115 1.7.71 2.8c-5.879 2.49-11.734-1.45-15.589 4.93.019 2.94.756 8.46-1.21 10.63-2.002.36-1.404.41-3.088.24-4.15-.43-10.926-.19-14.241-2.61l.878-1.21c1.179.4 2.126.76 3.354 1.05 1.679.4 2.617-.3 3.986-1.13 1.651-1 3.081-1.65 4.94-2.24 1.349.93.905.48 1.916 1.72.233.29.453.58.68.87 2.15-3.55.78-13.49.532-17.81"/><path fill="#29217a" d="M880.498 1187c2.348.67 2.566.27 4 2.42-.408 1.24-.741 2.46-1.36 3.62l-2.084 1.36c-.01 3.36.258 6.89-.569 10.14l-3.123.47c-2.844-7.96-3.371-2.86-6.954-8.81 2.183-.07 2.553.39 4.173-1.21-1.137-1.04-.616-.71-2.014-1.39-.329-.16-.664-.31-.996-.46l1.052-1.33c3.783-1.03 5.863-1.38 7.875-4.81"/><path fill="#2a2782" d="m1191.97 1298.84-1.22-.79c.5-2.19 3.56-2.11 4.6-4.78l-1.25-1.23c-3.61 1.48-11.36 5.59-15.01 5.34-1.39-.09-1.91-7.12-3.59-8.98-2.39.46-4.7.87-7.13 1.09-1.01-2.35-.42-2.55.32-4.88 3.16-.92 5.54-.67 8.77-.28 2.77 1.86 2.5 6.79 3.49 10.12 2 .27 2.6 0 4.45-.65.2-3.6-3.37-5.41-3.71-9.32 3.86-2.12 12.88-.33 17.81-1.05l-5.1-2.47.52-1 1.77.63c1.92-.42 1.1-.1 3.03-1.21.49-.29.97-.58 1.45-.87l1.79.69c1.32 3.55 1.03 4.26.31 7.85 2.35 1.14 3.93 1.16 6.44 1.26 1.62.06 1.01.03 2.95.53l-.98 1.18c.19.48.38.97.57 1.46.78 1.95.4 1.2 1.41 2.78l-.5 2.82.19-.12c-2.69.21-5.02.04-7.33 1.54.92 1.55 1.3 1.97 2.8 3.16-2 .51-2.66-.43-4.42-1.37-1.15-1.93-1.15-2.06-.95-4.3-2.53.34-4.36 1.1-5.9 3.21-1.03 1.41-1.82 3.05-2.61 4.6-2.88-.04-4.18-.08-6.72-1.66l-.16-1.58z"/><path fill="#29217a" d="M1211.68 1290.02c.19.48.38.97.57 1.46.78 1.95.4 1.2 1.41 2.78l-.5 2.82.19-.12c-2.69.21-5.02.04-7.33 1.54.92 1.55 1.3 1.97 2.8 3.16-2 .51-2.66-.43-4.42-1.37-1.15-1.93-1.15-2.06-.95-4.3-2.53.34-4.36 1.1-5.9 3.21-1.03 1.41-1.82 3.05-2.61 4.6-2.88-.04-4.18-.08-6.72-1.66l-.16-1.58 3.91-1.72c2.13-1.07 3.62-1.8 5.13-3.68 1.66-2.07.61-1.01 2.49-2.67 3.7-.09 4.77.77 7.98 2.47 2.67-.96 2.82-2.54 4.11-4.94"/><path fill="#282681" d="m911.279 1236.74-1.306-.7c.985-2.69 2.155-3.32 4.389-4.84 1.193-.81.729-.41 1.648-1.64-1.151-3.83-6.144-3.33-4.803-8.01l.141 3.26-.012-3.27-.033.02 4.97 1.02.848-1.09-1.17-4.5 1.371-.74 2.795.93c.143 1.48-.021 1.97-.478 3.34 2.426 2.57 4.217.6 6.179 2.71l-1.827 7.79c1.148.91 1.97 1.3 3.301 1.86l1.244 2.4c-1.603.39-3.443.28-4.354 1.73-.865 1.37-.566.89-1.298 2.7l-1.394.44c-2.085 1.2-3.384 1.44-5.705 1.97-3.199-1.47-3.076-2.28-4.506-5.38"/><path fill="#2a2782" d="m856.837 1256.51.55 2.18c-1.243.64-2.478 1.29-3.747 1.87-3.743 1.74-6.963 2.07-10.859.6 1.711-1.92 3.548-3.48 3.785-6.17-.862-1.47-1.594-2.42-2.837-3.64-.397-.39-.81-.76-1.216-1.14 3.422-.14 6.319 1.5 9.616 2.22l1.883.41.68 3.38z"/><path fill="#282681" d="m899.297 1216.55 1.964-.12c1.56 1.36 2.85 2.71 4.256 4.22-.568 2.36-2.646.22-5.036 1.78l-.122 1.17 4.111 1.02-1.947 1.86c-1.733.49-3.913 1.36-5.717 1.02-.353-.06-.683-.22-1.026-.33-.957-.29-1.917-.57-2.869-.87-3.703.17-6.704.9-10.481.44l1.794-.02-.598-.65c4.562-1.5 8.842-2.83 12.967-5.36l-.211-.36c1.341-1.33 1.991-2.09 2.915-3.8"/><path fill="#2a2782" d="M857.068 1249.96c3.133.21 5.942 1.1 8.637-.62l.917-3.62c2.534-1.17 7.124-1.5 9.714-.38.3.13.561.34.841.5l-.881 1.61c-.554.07-1.11.12-1.661.2-3.284.51-5.946 2.95-8.557 4.85-1.324.96-2.716 1.61-4.185 2.32l-5.056 1.69-2.145-.29-.68-3.38 1.701-2.65z"/><path fill="#282681" d="m854.012 1252.84 1.701-2.65 1.355-.23c1.623 3.09 1.716 3.32 4.825 4.86l-5.056 1.69-2.145-.29z"/><path fill="#29217a" d="M1203.27 1287.05c4.33-.79 8.6-1.57 12.86-2.7 1.03 1.94.71.84.74 3.34 3.88-1.97 8.87-5.35 13.18-5.75 2.22 1.42 1.87 1.87 2.63 4.27-4.85 2.62-14.39 2.57-20.02 2.63-1.94-.5-1.33-.47-2.95-.53-2.51-.1-4.09-.12-6.44-1.26m-388.316-16.66c2.051.06 2.841.11 4.768.97.101 1.38.171 2.78.298 4.16.211 2.28.53 3.82-.386 6.08-.191.47-.476.9-.673 1.37-.029.07.001.15.001.23-1.799-1.39-1.923-2.04-4.279-1.99l-.913 2.96-.539-.14c-.137-1.59-.302-3.17-.514-4.75l-1.622 2.65-1.326-.03c.901-1.93 2.537-3.51 3.912-5.13l.253.42c1.865-2.37 1.154-3.91 1.02-6.8"/><path fill="#2a2782" d="m927.042 1258.17.731-.12 1.064 1.37-.691 2.82c-3.207 2.49-4.977 2.28-8.949 2.74-1.358-1.62-1.423-1.87-1.788-3.84 2.367-3.62 5.171-1.25 8.41-2.43.418-.15.815-.36 1.223-.54"/><path fill="#282681" d="m840.032 1222.78.729-.04 1.054 1.2c-.917 2.37-.993 2.39-3.181 3.7-3.084.33-4.754-.76-7.345-2.19-1.88.1-.989.34-2.635-.84 2.789-1.82 7.967-1.44 11.378-1.83m9.219 4.92c3.88 1.26 9.897.81 14.103 1.03l.258 1.83c-4.885 1.52-9.822.85-14.661-.45z"/><path fill="#2a2782" d="M826.714 1262.43c1.263.19 2.394.58 3.609.96 1.626 3.18.741 5.44.317 8.93l-1.825-.72c-1.769-3.77-3.149-5.04-2.101-9.17m85.688-53.1c2.578-.21 4.232-.45 6.691.54l1.072 3.01c-2.702-.24-4.731-.52-7.299-1.5z"/><path fill="#09d4ea" d="M1022.95 651.273a6705 6705 0 0 1 97.25 146.984c7.46 11.455 28.08 39.126 32.3 49.796-.06 12.724 29.21 37.583 24.59 47.833-3.62 2.26-7.9 1.067-10.93 2.986-3.98.835-7.65 1.03-11.71 1.03-.47.112-.94.252-1.42.337-2.01.357-3.01-.02-4.93-.279-1.93-.258-3.89.421-5.72.951-1.02 1.138-1.21 1.693-2.69 2.139-1.03.312-2.52.806-3.3 1.615l-7.36-.415-1.37 1.587c-.99-.558-1.96-1.093-2.99-1.584l-.84-.396c-1.14-2.16-1.02-1.767-3.03-2.699l-.96-1.877c-6.07-2.722-6.77 2.032-12.52 1.918-2.15-.54-1.19-.459-3.6-.331-.6.032-1.19.084-1.79.126l-.77-.994c-3.9-.478-5.32-1.224-8.16-3.904-3.73.602-4.94.141-7.33 3.187l.11 2.109-2.78.938a90 90 0 0 0-2.02-2.916l.33.738-1.95.553c-.59 5.835.46 9.762 2.48 15.235-20.64-16.251-38.43-35.737-58.23-52.982-10.36 7.425-19.58 17.356-28.806 26.14a2884 2884 0 0 1-41.504 38.54c-6.343 5.871-12.514 12.392-19.085 17.956-7.068 5.19-13.194 11.802-19.626 17.766l-39.475 36.96c-46.318 43.43-93.556 85.68-140.573 128.32-17.259 15.65-32.855 34.25-51.435 48.26-.456-.5-1.042-.91-1.369-1.51-1.911-3.48 20.434-27.69 19.697-35.22 6.978-13.68 17.101-26.64 25.647-39.4l49.282-73.9a9104 9104 0 0 1 80.618-122.121c13.313-20.131 25.796-41.602 40.463-60.729 2.268-5.443 6.741-10.902 10.009-15.847l22.969-34.833 55.133-84.901c12.451-18.991 25.555-37.801 37.395-57.166m118.23 203.391c-3.55.758-17.2 2.277-19.76.78-1.52-.889-2.5-2.104-3.66-3.393-10.54-1.258-22.62 3.134-32.06 1.502-.41-2.54-.27-1.292-.45-3.742l-14.29.391a276 276 0 0 0-5.55 7.321c-1.35 1.859-.64 1.124-2.53 2.477l-.04 2.943c2.08 1.424 2.99 2.193 5.67 1.905 2.12-.228 3.96-1.011 5.53-2.415 1.12.329 2.31.596 3.37 1.065.47.071.95.149 1.42.213 3.37.461 7-.876 9.81 1.034-.54 1.688-1.23 3.118-2.07 4.676 1.83 1.004 2.74.985 4.8.788l2.69-.816c8.03 2.51 23.7 2.739 31.8.916 1.85-.416 4.24-.497 5.29-2.126-9.22-2.457-27.17 1.049-34.68-2.41-1.31-.599-1-.682-1.66-2.135 5.75-4.268 14.07.008 20.67-.587l1.03-3.601 1.03-.344 1.2 2.451c8.23 2.013 22.83 2.537 31.52 2.235.65-.022 1.29-.06 1.94-.091l.6-2.744c-.93-2.639-.8-3.717-3.29-5.124l-.54 1.133c.7 1.323 1.47 2.323 1.51 3.844-4.87.485-9.22-2.707-14.01-3.029-.32-.021-.64.003-.96.005zm-91.29-16.072-7.41-1.05c1.32 2.816 1.18 3.543 4.22 4.63 2.17.777 4.23.771 6.35-.145.4-.171.77-.402 1.15-.603l-.74-1.377-3.22-.789zm-106.18 35.953-1.193.196c-3.186.495-12.59.025-14.671 1.593l1.232 1.77 2.677-.026c5.738.13 10.265.39 15.337-2.812l-.308-1.172c-.983.113-2.143.124-3.074.451m68.52-102.588c6.88-.19 14.91.332 21.52-1.755l.27-.311c-5.28-4.311-18.42-3.571-25.18-4.337-.29-.033-.57.11-.86.165l-1.39 2.623c-5.63 1.134-18.003-.432-22.398 2.56 6.251 2.931 20.818 1.123 28.038 1.055m-19.06 17.165c.069-.407.215-.809.208-1.222-.03-2.032-1.018-2.342-2.523-3.308-3.227-.541-5.304.775-8.131 2.122l-1.279.622-4.416-1.625c-.803 1.655-.73 2.271-2.409 3.155-.735-2.582-.889-3.159-2.777-5.026l.086 1.019c.362 4.781-1.785 12.05 1.498 15.547l1.223-.476c3.499-1.329 6.368-2.036 10.078-2.401 2.611-.257 3.733-.538 5.479-2.463-1.292-1.579-2.104-2.162-4.298-2.105-4.379.114-6.977 3.718-11.408 2.46l-.389-1.788c3.19-3.863 8.572-3.839 13.223-4.27 1.96-.182 3.866-.326 5.835-.241m37.05-14.077c-8.72-.019-40.474-1.235-46.19 1.873.334 1.708-.03 1.134.627 1.939 12.762-.118 26.273.006 38.963-.904 3.37-.242 4.32-.391 6.6-2.908m-16.98 41.594-1.62 1.958c1.71 2.157 1.52 2.94 4.37 3.336 1.94-1.287 4.04-3.177 6.35-3.507l2.73 2.089 1.77-.408.02-1.922c-4.87-3.014-8.08-2.156-13.62-1.546m61.63-17.727.53-2.111c-3.82-5.997-17.74-.454-24.19-5.172-.44 1.24-.55 2.957-1.84 3.522-1.74.76-3.54.402-5.38.27l-1.28 1.408c6.45 4.664 22.57-2.332 32.16 2.083m-31.7 11.092-.62 2.601c6.87 2.351 14.71-1.205 21.69-.447 2.34-.033 2.94.037 5.03-1.187-3.27-2.189-20.93-.69-26.1-.967m-61.456 24.143c-2.721.278-5.227.192-7.347 2.132.96 1.676 1.68 1.873 3.548 2.3 2.796.64 6.322-.051 9.177-.394 2.388-1.123 4.283.409 5.56-1.365-1.887-2.161-4.342-2.354-7.172-2.702-1.252-.154-2.515-.045-3.766.029m-40.274-14.485 2.344.844c3.054.219 13.008-.074 15.303-1.577-7.297-2.625-21.075-4.457-28.594-2.361.643.127 1.991.369 2.559.601 2.938 1.201 5.175 1.878 8.388 2.493m70.23-39.731.25 3.545c5.39 3.634 15.7 1.569 21.87.605-4.45-5.937-13.28-2.68-20.13-3.797-.66-.109-1.32-.235-1.99-.353"/><path fill="#06c2df" fill-opacity=".988" d="M1062.88 860c1.89-1.353 1.18-.618 2.53-2.477 1.81-2.482 3.66-4.902 5.55-7.321l14.29-.391c.18 2.45.04 1.202.45 3.742 9.44 1.632 21.52-2.76 32.06-1.502 1.16 1.289 2.14 2.504 3.66 3.393 2.56 1.497 16.21-.022 19.76-.78l-5.67 3.122c.32-.002.64-.026.96-.005 4.79.322 9.14 3.514 14.01 3.029-.04-1.521-.81-2.521-1.51-3.844l.54-1.133c2.49 1.407 2.36 2.485 3.29 5.124l-.6 2.744c-.65.031-1.29.069-1.94.091-8.69.302-23.29-.222-31.52-2.235l-1.2-2.451-1.03.344-1.03 3.601c-6.6.595-14.92-3.681-20.67.587.66 1.453.35 1.536 1.66 2.135 7.51 3.459 25.46-.047 34.68 2.41-1.05 1.629-3.44 1.71-5.29 2.126-8.1 1.823-23.77 1.594-31.8-.916l-2.69.816c-2.06.197-2.97.216-4.8-.788.84-1.558 1.53-2.988 2.07-4.676-2.81-1.91-6.44-.573-9.81-1.034-.47-.064-.95-.142-1.42-.213-1.06-.469-2.25-.736-3.37-1.065-1.57 1.404-3.41 2.187-5.53 2.415-2.68.288-3.59-.481-5.67-1.905z"/><path fill="#0ad2e8" fill-opacity=".988" d="m1042.48 837.542 7.41 1.05.35.666 3.22.789.74 1.377c-.38.201-.75.432-1.15.603-2.12.916-4.18.922-6.35.145-3.04-1.087-2.9-1.814-4.22-4.63"/><path fill="url(#Gradient6)" d="M701.434 1140.17c6.978-13.68 17.101-26.64 25.647-39.4l49.282-73.9a9104 9104 0 0 1 80.618-122.121c13.313-20.131 25.796-41.602 40.463-60.729-1.245 19.133-46.351 55.857-39.32 80.974 1.883 1.964 2.243 1.539 4.822 1.876 4.459-.904 8.181.013 12.207 2.017 1.23 1.865.893 1.857 3.169 2.755-.002-.284-.047-.571-.006-.852.293-1.983.935-3.026 2.442-4.265 1.651.082 2.963.275 4.583.698.533.139 1.062.296 1.593.445 1.469-1.301 2.485-2.23 4.382-2.811l1.367 1.707-2.002.978.913 1.056 5.991-.313c3.081-2.481-1.138-3.594.034-7.302 1.208-.714 1.338-.869 2.86-1.336 4.503-1.384 11.159-.034 15.19 2.188l.317 2.15c-2.502 1.857-6.975 1.167-10.036 1.105 2.086.761 1.04.292 3.121 1.441l.372 2.72c6.099.2 16.265-1.336 21.507-4.348.052-3.347-.378-3.663 2.104-6.123 2.371-.093 3.331.122 5.367 1.346 2.019 4.271-.744 8.465 1.129 12.542l2.62.621c-1.601 5.763-7.504 5.07-7.955 12.305-7.068 5.19-13.194 11.802-19.626 17.766l-39.475 36.96c-46.318 43.43-93.556 85.68-140.573 128.32-17.259 15.65-32.855 34.25-51.435 48.26-.456-.5-1.042-.91-1.369-1.51-1.911-3.48 20.434-27.69 19.697-35.22"/><path fill="#0fb1d7" d="M862.946 926.87c4.459-.904 8.181.013 12.207 2.017 1.23 1.865.893 1.857 3.169 2.755.647.608 1.285 1.227 1.969 1.792 3.98 3.287 7.668 3.107 12.437 2.532 1.453-.175 1.701.274 2.939.978-.701 1.512-.811 2.377-.755 4.03.083 2.437.318 3.856-1.183 5.958-3.551 1.775-22.379.654-27.761.925l-1.312-.755-1.336.511 7.377-2.18c-2.179-.63-1.317-.476-3.512-.745-.503-.061-1.007-.11-1.511-.166-1.155-2.232-.5-3.796-.214-6.151.602-4.956.444-7.561-2.514-11.501m37.159 13.766c2.176.931 3.823 2.542 5.599 4.067l-.375 1.543c-2.011.338-3.984.767-5.972 1.219l-.848-1.137z"/><path fill="url(#Gradient5)" d="M1030.89 846.15c3.23-.574 3.47-2.082 6.89-1.574-2.42 2.75-5.79 3.434-7.34 6.816 6.31 6.498 30.66-2.697 32.44 8.608l-.04 2.943c2.08 1.424 2.99 2.193 5.67 1.905 2.12-.228 3.96-1.011 5.53-2.415 1.12.329 2.31.596 3.37 1.065.47.071.95.149 1.42.213 3.37.461 7-.876 9.81 1.034-.54 1.688-1.23 3.118-2.07 4.676 1.83 1.004 2.74.985 4.8.788l-1.63 4.895-1.16.259-1-2.287-1.92 2.522-8.69.853-.6.925 1.46-.148c3.19-.304 5.77-.754 8.82.51 1.83 2.493 1.63 2.82 1.57 5.959-1.19 1.818-5.28 4.026-5.39 4.768.58.193 1.17.374 1.74.578 2.33.825 1.47.359 3.24 1.778-1.93.997-2.77 1.427-4.98 1.616l4.03 1.281-1.08.78c1.72-.145 3.05-.44 4.68-1.029 2.18 1.414 1.36.509 2.54 2.627-3.73.602-4.94.141-7.33 3.187l.11 2.109-2.78.938a90 90 0 0 0-2.02-2.916l.33.738-1.95.553c-.59 5.835.46 9.762 2.48 15.235-20.64-16.251-38.43-35.737-58.23-52.982-10.36 7.425-19.58 17.356-28.806 26.14a2884 2884 0 0 1-41.504 38.54c-6.343 5.871-12.514 12.392-19.085 17.956.451-7.235 6.354-6.542 7.955-12.305l-2.62-.621c-1.873-4.077.89-8.271-1.129-12.542-2.036-1.224-2.996-1.439-5.367-1.346-2.482 2.46-2.052 2.776-2.104 6.123-1.486-.919-2.1-1.328-2.96-2.901-2.646-4.833-7.786-1.605-12.407-3.567 1.67-1.74 5.252-1.608 7.65-1.969-7.381.501-17.549-.315-24.81-1.976-7.236.69-14.796-.146-22.059-.542 9.235-1.687 15.404-7.782 25.182-4.778l-3.799.885-.298.577 7.875-.155c.708-1.774 1.278-2.854 2.616-4.225 2.347-.293 3.822-.624 6.07.314-1.184.989-2.128 1.21-2.288 2.8 3.724.122 7.982-.331 11.324 1.372-5.157 2.619-8.959.431-14.082.392-2.045-.015-2.694.398-4.225 1.63 4.282 1.237 17.489 1.635 22.186 1.079 2.108-.249 2.806-.628 4.011-2.22l-2.027-.885c1.778-1.023 3.258-1.8 5.251-2.307 2.719.978 6.206 2.463 9.006 1.57.365-2.402.39-4.004 1.849-6.029 2.891-.12 5.279-.263 8.046-1.255 1.63-2.237 1.694-2.472 1.778-5.241.096-1.608-.099-3.056-.282-4.652-2.599-2.371-7.615-1.748-11.218-2.326l-1.064-1.545c1.321-2.436 2.362-2.447 4.746-3.762-11.346-1.447-51.986 3.001-59.145-1.229 1.85-2.014 7.691-1.641 10.657-1.954 3.841-.597 7.952-.465 11.831-.434l1.058-1.046-3.035-2.502c1.709-.717 3.017-1.386 4.473-2.538-1.813-.921-3.703-1.037-5.696-1.342l.995-1.128c3.637-.627 7.386-.493 11.07-.52-5.27-.5-13.282 1.293-17.9-.928l-.818-2.721 1.801 1.955c18.044.035 65.977 1.296 79.836-2.36l-5.224-1.426c2.63-1.795 8.188-1.508 11.574-2.342l-3.293-2.353c1.447-.659.89-.567 2.351-.671 5.188-.371 12.257-.347 16.934-2.688-1.44-.347-2.35-.682-3.72-1.34 2.21-2.433 2.93-2.002 6.11-2.273.8-1.993.79-3.027.48-5.143-.97 1.24-1.5 1.799-2.84 2.717l-1.05-2.151.63-1.247-1.12-1.655 1.33-1.335c7.89-2.32 18.38-.595 26.58-.383m-99.135 31.928c5.738.13 10.265.39 15.337-2.812l-.308-1.172c-.983.113-2.143.124-3.074.451l-1.193.196c-3.186.495-12.59.025-14.671 1.593l1.232 1.77z"/><path fill="#06c2df" d="m1062.88 860-.04 2.943c2.08 1.424 2.99 2.193 5.67 1.905 2.12-.228 3.96-1.011 5.53-2.415 1.12.329 2.31.596 3.37 1.065-1.54 1.039-2.46 1.825-3.51 3.363l.58.276c-.98 1.384-1.97 3.022-3.61 3.72-3.27 1.394-14.64 2.242-17.78.846l.81-1.28c1.69-.179 3.1-.368 4.74-.836-1.44-1.241-1.29-1.365-1.84-3.062 1.33-2.924 3.66-4.539 6.08-6.525"/><path fill="#06c2df" fill-opacity=".988" d="M943.71 874.545c.931-.327 2.091-.338 3.074-.451l.308 1.172c-5.072 3.202-9.599 2.942-15.337 2.812l-2.677.026-1.232-1.77c2.081-1.568 11.485-1.098 14.671-1.593z"/><path fill="#06c2df" d="m1091.37 870.209 2.69-.816c8.03 2.51 23.7 2.739 31.8.916 1.85-.416 4.24-.497 5.29-2.126-9.22-2.457-27.17 1.049-34.68-2.41-1.31-.599-1-.682-1.66-2.135 5.75-4.268 14.07.008 20.67-.587l1.03-3.601 1.03-.344 1.2 2.451c8.23 2.013 22.83 2.537 31.52 2.235.65-.022 1.29-.06 1.94-.091l2.83-.219 1.34 1.252-3.79 2.167c.95.131 3.37.126 3.96.86l-1.38 1.151 2.37 2.542c-4.27.321-8.47-.032-12.73-.305l-1.28-2.6c-1.06 3.044.82 4.027.47 6.47-.33 2.291-2.88 3.29-2.16 5.918 3.16.552 8.5.752 10.84 3.02l-1.08.808c-.4-.117-.79-.287-1.2-.35-3.4-.521-11.39 3.737-13.37 1.671-1.63-1.695-2.4-3.967-3.31-6.095-1.86-1.275-2.32-1.307-4.58-1.487l-1.24 1.579c1.75 2.404 7.25 3.91 7.04 6.322l-3.59 2.091c12.36.132 14.87-1.945 24.75 7.107.48.135.96.279 1.44.405 1.5.388 2.67.566 4.17.756 2.01.256 2.91.738 4.46 2.108-3.98.835-7.65 1.03-11.71 1.03-.47.112-.94.252-1.42.337-2.01.357-3.01-.02-4.93-.279-1.93-.258-3.89.421-5.72.951-1.02 1.138-1.21 1.693-2.69 2.139-1.03.312-2.52.806-3.3 1.615l-7.36-.415-1.37 1.587c-.99-.558-1.96-1.093-2.99-1.584l-.84-.396c-1.14-2.16-1.02-1.767-3.03-2.699l-.96-1.877c-6.07-2.722-6.77 2.032-12.52 1.918-2.15-.54-1.19-.459-3.6-.331-.6.032-1.19.084-1.79.126l-.77-.994c-3.9-.478-5.32-1.224-8.16-3.904-1.18-2.118-.36-1.213-2.54-2.627-1.63.589-2.96.884-4.68 1.029l1.08-.78-4.03-1.281c2.21-.189 3.05-.619 4.98-1.616-1.77-1.419-.91-.953-3.24-1.778-.57-.204-1.16-.385-1.74-.578.11-.742 4.2-2.95 5.39-4.768.06-3.139.26-3.466-1.57-5.959-3.05-1.264-5.63-.814-8.82-.51l-1.46.148.6-.925 8.69-.853 1.92-2.522 1 2.287 1.16-.259z"/><path fill="#0fb1d7" d="M1156.09 895.603c.48.135.96.279 1.44.405 1.5.388 2.67.566 4.17.756 2.01.256 2.91.738 4.46 2.108-3.98.835-7.65 1.03-11.71 1.03-3.25-1.172-8.67-.913-11.11-3.103 4.01-1.559 8.5-1.161 12.75-1.196"/><path fill="#0ad2e8" d="m1049.89 838.592 1.06-1.8-.65-1.544c4.98-2.773 29.83.97 36.62 1.634.59 1.596.46.671-.04 2.798 16.93 1.555 34.13-3.802 50.92.149l.71 1.299c-1.14 3.015-2.06 4.398-5.02 5.809-1.08.513-2.2.958-3.3 1.406 1.99 2.376 6.59 2.951 9.6 3.503l1.65 1.718-.26 1.1c-3.55.758-17.2 2.277-19.76.78-1.52-.889-2.5-2.104-3.66-3.393-10.54-1.258-22.62 3.134-32.06 1.502-.41-2.54-.27-1.292-.45-3.742l-14.29.391a276 276 0 0 0-5.55 7.321c-1.35 1.859-.64 1.124-2.53 2.477-1.78-11.305-26.13-2.11-32.44-8.608 1.55-3.382 4.92-4.066 7.34-6.816-3.42-.508-3.66 1-6.89 1.574-.78-.763-1.36-1.816-2.35-2.289-4.17-2.005-21.59 3.056-28.23-1.879 3.26-6.338 33.8.494 40.8-3.546.48-.272.92-.596 1.37-.894 1.32 2.816 1.18 3.543 4.22 4.63 2.17.777 4.23.771 6.35-.145.4-.171.77-.402 1.15-.603l-.74-1.377-3.22-.789z"/><path fill="#09d4ea" d="M1045.17 844.157c9.79-.043 46.34-1.179 53.93 3.149l-2.85.381c-7.68-.084-15.33-1.161-23.07-1.23-10.53-.094-21.07 1.038-31.58.111 1.64-.872 1.01-.455 2.52-1.593.35-.269.7-.545 1.05-.818"/><path fill="#06c2df" d="M900.511 868.845c.594-1.065.767-1.48 1.655-2.493 1.241-1.416 3.347-3.26 5.197-3.516l-.521 1.964c.538.257 1.043.596 1.612.77 6.277 1.919 40.621 1.11 46.656-1.66 2.01-.922 3.142-1.592 5.421-1.625.605-.009 1.21.017 1.815.026l.779-2.164 2.681.113-.304-.697c-1.456-.34-2.571-.678-3.916-1.372-.379-.196-.748-.412-1.122-.619-1.482.754-2.879 1.386-4.499 1.803-4.062 1.044-22.084 1.04-25.156-.678 3.053-1.691 6.141-3.272 9.265-4.829-2.69-2.249-18.432-.815-22.811-.493a145 145 0 0 1-1.222 4.552l-2.194 1.051-1.488-1.005c-.671-2.518-.915-4.75.211-7.229 1.107-2.439 2.292-2.924 4.552-3.903 2.1.274 3.389.339 5.04 1.738-3.668-.765-6.963-1.874-10.441-3.26l-.429-1.129.959 1.593c.867.213 1.137.325 2.147.311 2.339-.03 4.345-.398 5.98-2.013-1.632-1.65-4.587-1.05-6.884-1.109 1.898-.465 2.889-.39 4.313-1.785-1.958-.116-3.993.278-5.423-1.119 8.156-1.798 19.439-1.972 27.221 1.126 1.937 2.173 1.99 2.011 1.882 4.901-4.13 6.623-12.998 2.444-19.81 4.425l.558.87c5.926 1.158 69.074 1.86 73.82.9l-.385-1.265c-5.936-1.928-13.646-1.217-19.914-1.277-2.748-1.622-5.225-1.574-8.312-1.715 8.856-1.288 18.188-.809 27.042.339 1.641-1.677 1.407-3.094 1.736-5.347l1.6.08 1.936 4.006c1.102.324 2.082.636 3.222.757l1.12 1.655-.63 1.247 1.05 2.151c1.34-.918 1.87-1.477 2.84-2.717.31 2.116.32 3.15-.48 5.143-3.18.271-3.9-.16-6.11 2.273 1.37.658 2.28.993 3.72 1.34-4.677 2.341-11.746 2.317-16.934 2.688-1.461.104-.904.012-2.351.671l3.293 2.353c-3.386.834-8.944.547-11.574 2.342l5.224 1.426c-13.859 3.656-61.792 2.395-79.836 2.36z"/><path fill="#0fb1d7" d="M908.428 890.571c6.53-5.952 21.765-3.813 30.32-4.038l.948.613.185 1.152c.393 2.351.488 4.415 2.108 6.278 2.831-.432 4.576-1.15 7.074-2.438 2.744.855 3.829 1.826 5.303 4.415.17.3.315.613.473.919-.084 2.769-.148 3.004-1.778 5.241-2.767.992-5.155 1.135-8.046 1.255-1.459 2.025-1.484 3.627-1.849 6.029-2.8.893-6.287-.592-9.006-1.57-1.993.507-3.473 1.284-5.251 2.307l-.217-6.429c-7.431-.554-19.434-.556-25.885-4.235l5.103-.464c-3.602-.234-5.495-.49-8.119-3.21 2.6.303 5.08.596 7.694.261.604-.078 1.206-.17 1.809-.255-6.433-2.383-15.912-1.784-20.583-5.248-1.525-1.13-1.045-.8-1.357-2.89 1.873-1.907 2.036-1.852 4.706-2.227 1.441 1.102 2.735 1.968 4.381 2.736 2.425-.737 5.372-2.03 7.909-1.529 1.471.291 1.867 1.674 2.634 2.83z"/><path fill="#06c2df" d="M909.294 896.402c-6.433-2.383-15.912-1.784-20.583-5.248-1.525-1.13-1.045-.8-1.357-2.89 1.873-1.907 2.036-1.852 4.706-2.227 1.441 1.102 2.735 1.968 4.381 2.736 2.425-.737 5.372-2.03 7.909-1.529 1.471.291 1.867 1.674 2.634 2.83l1.444.497c4.208-2.479 12.854-4.356 17.716-3.037.433.117.858.263 1.288.395l.778 1.562-.899 1.591c-4.595 1.01-10.968-1.585-14.794.386l-.104 1.507c3.735 1.881 9.788.41 14.094 1.406-4.334 2.68-12.162 1.974-17.213 2.021"/><path fill="#0fb1d7" d="M876.364 913.948c7.263.396 14.823 1.232 22.059.542l1.109 1.578c-1.241 2.134-2.326 3.192-4.303 4.661-6.258 1.408-12.434-1.854-17.916-4.625l.965-.37z"/><path fill="#0ad2e8" d="M947.84 844.163c5.194.444 12.572.226 17.112 2.633.82.434 1.664.82 2.492 1.237 3.087.141 5.564.093 8.312 1.715-9.505.276-19.241-.759-28.762-1.081.467-1.383.592-3.056.846-4.504"/><path fill="#0fb1d7" d="M898.533 882.004c-2.198-2.803-3.705-1.242-5.984-3.1.702-.658.956-.996 1.971-1.377 4.143-1.556 9.973-1.553 13.867.495l3.035 2.502-1.058 1.046c-3.879-.031-7.99-.163-11.831.434"/><path fill="#06c2df" d="m946.994 848.667-2.507-.202c-.333-.64-.692-1.218-.769-1.971-.297-2.895.347-3.731 2.024-5.836 3.863-1.607 6.618-1.552 10.528.059l-.31 1.081c-2.102.184-4.171.226-6.279.256l-1.841 2.109c-.254 1.448-.379 3.121-.846 4.504"/><path fill="#0ad2e8" fill-opacity=".988" d="M1007.98 765.719c.29-.055.57-.198.86-.165 6.76.766 19.9.026 25.18 4.337l-.27.311c-6.61 2.087-14.64 1.565-21.52 1.755-7.22.068-21.787 1.876-28.038-1.055 4.395-2.992 16.768-1.426 22.398-2.56zm-36.137 18.121c1.888 1.867 2.042 2.444 2.777 5.026 1.679-.884 1.606-1.5 2.409-3.155l4.416 1.625 1.279-.622c2.827-1.347 4.904-2.663 8.131-2.122 1.505.966 2.493 1.276 2.523 3.308.007.413-.139.815-.208 1.222-1.969-.085-3.875.059-5.835.241-4.651.431-10.033.407-13.223 4.27l.389 1.788c4.431 1.258 7.029-2.346 11.408-2.46 2.194-.057 3.006.526 4.298 2.105-1.746 1.925-2.868 2.206-5.479 2.463-3.71.365-6.579 1.072-10.078 2.401l-1.223.476c-3.283-3.497-1.136-10.766-1.498-15.547zm12.814-4.983c-.657-.805-.293-.231-.627-1.939 5.716-3.108 37.47-1.892 46.19-1.873-2.28 2.517-3.23 2.666-6.6 2.908-12.69.91-26.201.786-38.963.904m66.553 12.772c6.45 4.718 20.37-.825 24.19 5.172l-.53 2.111c-9.59-4.415-25.71 2.581-32.16-2.083l1.28-1.408c1.84.132 3.64.49 5.38-.27 1.29-.565 1.4-2.282 1.84-3.522m-39.54-11.698c.67.118 1.33.244 1.99.353 6.85 1.117 15.68-2.14 20.13 3.797-6.17.964-16.48 3.029-21.87-.605z"/><path fill="#09d4ea" fill-opacity=".988" d="M941.44 819.662c-3.213-.615-5.45-1.292-8.388-2.493-.568-.232-1.916-.474-2.559-.601 7.519-2.096 21.297-.264 28.594 2.361-2.295 1.503-12.249 1.796-15.303 1.577z"/><path fill="#0ad2e8" fill-opacity=".988" d="M981.714 834.147c1.251-.074 2.514-.183 3.766-.029 2.83.348 5.285.541 7.172 2.702-1.277 1.774-3.172.242-5.56 1.365-2.855.343-6.381 1.034-9.177.394-1.868-.427-2.588-.624-3.548-2.3 2.12-1.94 4.626-1.854 7.347-2.132"/><path fill="#09d4ea" fill-opacity=".988" d="M1043.17 810.004c5.17.277 22.83-1.222 26.1.967-2.09 1.224-2.69 1.154-5.03 1.187-6.98-.758-14.82 2.798-21.69.447zm-29.93 6.635c5.54-.61 8.75-1.468 13.62 1.546l-.02 1.922-1.77.408-2.73-2.089c-2.31.33-4.41 2.22-6.35 3.507-2.85-.396-2.66-1.179-4.37-3.336z"/><path fill="#0ad2e8" d="m941.44 819.662 2.344.844c1.008 5.629 2.911 6.288 3.673 8.663l-4.157 1.127c-1.463-1.494-2.393-6.564-3.035-8.734z"/><path fill="url(#Gradient4)" d="M720.138 956.562c3.86-2.663 7.913-6.224 12.602-7.043l1.001 1.292c-1.561 6.539-5.609 13.133-8.606 19.177-5.443 13.518-68.832 155.292-71.701 158.342-12.024 1.04-40.77-3.74-53.338-6.46-1.854-.4-2.786-.48-4.589.34l-.499 1.23c6.151 3.77 11.799 8.6 17.753 12.69 9.27 6.38 18.871 12.2 28.042 18.74-2.511 12.05-46.593 105.56-54.219 118.55l-.981 1.65c-1.942 3.3-4.219 5.36-7.264 7.62-12.096 8.98-25.24 16.94-37.791 25.29a3381 3381 0 0 1-74.171 48.68c-14.038 9.06-31.325 22.87-46.352 29.26.81-8.4.246-17.17.238-25.61l-.017-49.91.063-160.49c28.321-18.92 57.779-36.44 86.335-55.07 16.511-10.78 45.584-32.84 62.27-39.53 5.242-6.28 27.957-18.78 35.933-23.9l66.626-43.546c14.772-9.512 30.665-18.536 44.635-29.103 1.611-1.218 2.05-1.631 4.03-2.199"/><path fill="#282681" d="M420.309 1149.91c28.321-18.92 57.779-36.44 86.335-55.07 16.511-10.78 45.584-32.84 62.27-39.53-8.606 9.72-32.7 22.83-44.851 30.71-33.668 21.82-67.241 44.01-101.572 64.77l-.176 41.4.917.23c1.675 2.34.87 3.38.448 6.09.968 2.2 1.305 1.97 3.3 3.09l2.02-.57.849-2.02c-.3-2.14-.549-3.77-.261-5.94.063-.47.166-.93.249-1.4 2.594-.84 4.911-1.88 7.67-1.3l8.228-.17 1.7 1.73-2.788 1.67.389 1.19c2.27.24 4.432.35 6.715.32 2.197.08 1.468.17 3.298-.12 2.994-.47 5.123-.77 8.125-.26 3.205.56 6.392 1.21 9.61.58l5.164.64c.619-.29 1.592-.79 2.229-.96 2.142-.58 2.83-.01 4.697.94l2.126-.76c2.026 1.14 2.189 1.72 4.578 1.36l2.952-.63c2.229 2.98 4.738 4.4 8.51 5.21 1.209.26 1.655.15 2.751.04l.698-.9c-2.666-1.25-5.086-1.92-7.961-2.53 4.063-1.09 10.542-1.88 14.564-.78l-4.139 1.74.3 1c.638 0 1.278-.03 1.915 0 .432.02 1.586.2 2.065.27l-2.399 1.12c1.195.77 2.228 1.26 3.643 1.51 8.557 1.48 24.269 4.78 31.701-.52 1.869-1.33 1.971-1.26 2.428-3.61l-2.175-1.69c.249-.4.336-.97.747-1.2 1.162-.66 21.508 2.23 27.755-.14 1.622-.62 1.558-1.71 2.177-3.2 5.796.21 13.616 2.14 19.043 1.6.736-.07 3.119-2.1 3.654-2.46 2.036-1.38 3.793-1.82 6.204-1.22 2.509.63 1.622 5.05 4.467 5.12l3.118-3.99c2.047-.1 3.131-.12 4.96.85l1.085 2.09c-1.337 2.84-3.845 6.6-3.46 9.65l.278.34c7.984-15.46 14.459-31.82 21.943-47.56-8.81-6.52-41.172-25.41-45.099-32.11l1.705-1.09c6.151 3.77 11.799 8.6 17.753 12.69 9.27 6.38 18.871 12.2 28.042 18.74-2.511 12.05-46.593 105.56-54.219 118.55l-.981 1.65c-1.942 3.3-4.219 5.36-7.264 7.62-12.096 8.98-25.24 16.94-37.791 25.29a3381 3381 0 0 1-74.171 48.68c-14.038 9.06-31.325 22.87-46.352 29.26.81-8.4.246-17.17.238-25.61l-.017-49.91z"/><path fill="#29217a" d="M420.309 1149.91c28.321-18.92 57.779-36.44 86.335-55.07 16.511-10.78 45.584-32.84 62.27-39.53-8.606 9.72-32.7 22.83-44.851 30.71-33.668 21.82-67.241 44.01-101.572 64.77l-.176 41.4c.02 3.73-.138 7.55.097 11.26.002 9.07-1.186 63.85.343 67.9l.193-.88c4.182-4.35 11.132-3.41 16.901-3.55 2.807-.06 9.4-.73 11.47 1.19 1.184 1.11.773.63 1.542 2.14 1.184-1.37 1.033-1.56 1.334-3.25 1.833.09 1.052-.25 2.28.9 3.63 3.4 4.872 4.53 10.011 4.28q1.58-.09 3.156-.21l.336-3.66c4.339.19 5.137 6.02 12.715 3.53l1.306-1.03c.618.07 1.232.24 1.853.21 4.441-.19 9.266 1.3 13.428.88 3.712-.38 5.801-1.03 8.177-3.93-3.992-.2-7.427-.31-11.078-2.14l.445-1.14c11.344-2.83 23.964-1.72 35.568-1.38l-2.71 1.95c1.724-1.47 3.501-2.42 5.466-3.51l1.346.44c-.624 2.26-3.48 3.8-5.301 5.28 3.157 1.56 4.405 1.37 7.729.82l1.102 1.5c1.491 3.73 1.965 6.69 5.416 8.99l9.56.76 1.788 2.24-.535 1.12c-2.095-.23-3.629-.36-5.684.16-1.159 2.78-1.995 4.5-4.339 6.54-1.841.24-2.993.4-4.707 1.18l2.46.3.61 1.18c-3.884 2.11-12.437 1.46-17.198 2.02 3.007 2.64 13.124-.97 17.454.69.239 2.1.262 1.42.148 3.24-.024.38-.061.76-.092 1.14 4.651-.7 8.403-6.8 12.895-8.87 9.219-4.24 18.845-9.97 25.401-17.89 9.172-11.07 26.059-52.87 33.258-68.39 7.984-15.46 14.459-31.82 21.943-47.56-8.81-6.52-41.172-25.41-45.099-32.11l1.705-1.09c6.151 3.77 11.799 8.6 17.753 12.69 9.27 6.38 18.871 12.2 28.042 18.74-2.511 12.05-46.593 105.56-54.219 118.55l-.981 1.65c-1.942 3.3-4.219 5.36-7.264 7.62-12.096 8.98-25.24 16.94-37.791 25.29a3381 3381 0 0 1-74.171 48.68c-14.038 9.06-31.325 22.87-46.352 29.26.81-8.4.246-17.17.238-25.61l-.017-49.91z"/><path fill="#2a2782" d="M422.948 1270.47c4.182-4.35 11.132-3.41 16.901-3.55 2.807-.06 9.4-.73 11.47 1.19 1.184 1.11.773.63 1.542 2.14 1.184-1.37 1.033-1.56 1.334-3.25 1.833.09 1.052-.25 2.28.9 3.63 3.4 4.872 4.53 10.011 4.28q1.58-.09 3.156-.21l.336-3.66c4.339.19 5.137 6.02 12.715 3.53l-.107 2.28 1.507 1.51c2.372-.79 1.227-.6 3.411-.71l1.069 2.22.52-2.12c2.161-1.1 4.406-1.15 6.794-1.19 3.214-.05 6.515.19 8.915 2.52-.455 2.35-1.098 2.92-2.649 4.8-3.042.04-.843-2.2-3.37-3.8-2.805 1.44-4.349 4.41-6.097 6.93-2.979.25-6.96 1.03-9.87.62-3.275-.46-3.976-2.15-5.928-4.51-1.242 1.13-.89 2.43-1.041 4.04l-.91-.34c-.28-1.87-.383-2.8-1.371-4.45l-1.173.43c-.346 1.01-.71 1.89-.789 2.98-.205 2.83 1.488 4.58 3.243 6.48.222.24.451.48.676.71-.269.23-.499.52-.809.69-2.376 1.3-8.233 1.32-10.647.24-.624-4.33 2.911-7.53 2.926-12.04l-1.455-.78c-1.407 2.24-2.698 3.96-4.581 5.86-2.498.51-2.944.69-5.296-.2-1.854-3.38-2.246-7.37-2.93-11.12-9.027-2.37-20.333-1.25-29.783-2.42m109.444-7.16-2.71 1.95c1.724-1.47 3.501-2.42 5.466-3.51l1.346.44c-.624 2.26-3.48 3.8-5.301 5.28 3.157 1.56 4.405 1.37 7.729.82l1.102 1.5-2.289 3.14c-.532 3.13-.33 4.09-2.652 6.38-6.62 2.31-19.81-1.16-22.888 1.67l.693 1.01c2.268.1 4.467.21 6.721.52-2.9.7-5.393.45-8.318.19l-1.131-1.21c.646-1.61 1.168-2.34 2.481-3.47l.174-1.38c-2.564.01-4.195.13-6.537-1.07l.322-1.1a25 25 0 0 0 4.222-1.76c.453-.24.898-.5 1.347-.74 2.643-1.21 4.374-1.36 7.2-1.29.32.01.64.02.96.04l1.178-1.56c-1.981.03-1.278.27-2.755-.44-.699-.34-1.858-.98-2.579-1.22-2.72-.93-6.162-.77-8.716.47-3.992-.2-7.427-.31-11.078-2.14l.445-1.14c11.344-2.83 23.964-1.72 35.568-1.38m-102.555-71.64c1.215 1.3 1.524 1.19 1.691 2.96.182 1.93.979 2.94 2.024 4.5 4.543 1.94 13.845.69 18.872-.06l1.077 1.05-2.437 2.42c.139 2.97-.033 2.93 2.092 4.98 3.475.83 3.499.88 6.628-1 8.284 2.39 22.445-3.39 29.053.64l.824 2.07c3.64.36 6.936.75 10.561.13q-4.107-1.425-8.242-2.76c4.251-.3 11.473-1.89 14.963.22l.067 1.4c-1.525.47-3.031.93-4.525 1.49l18.205.06-.642-1.25-1.905-1.04c1.395.04.861-.2 1.705.44l1.592-1.01c5.167-.16 10.225-.22 15.373.37 4.065.46 9.746 2.32 13.595 1.92 3.05-.32 6.684-2.03 9.542-3.15 3.248 1.49 1.936 3.89 5.484 3.49 1.854-2.08 1.671-4.79 1.888-7.43 1.525-2.15 1.595-2.35 4.07-3.18.904 1.18 1.415 2.04 2.091 3.41 5.053-3.6 7.273-3.77 13.456-3.33l1.783 1.26-.013 1.99c-2.564 1.94-5.344.47-8.483 1.09l.508 1.38c3.017.85 6.008 1.57 9.078 2.21l-.424 1.71c-2.675.48-4.338-.27-6.878-1.02l-1.486.75c-.405 1.72-.761 2.04-.11 3.75l2.628-2.53c2.167 2.26-.361 7.8.668 10.58 1.414 3.81 4.417 5.9 4.736 10.33-1.427 2.06-1.598 2.04-4.002 2.82-1.213-.42-3.479-1.61-4.66-1.68-2.616-.14-4.736 2.29-7.327.17-.215-.18-1.775-2.4-1.914-2.47-4.391-2.34-3.601 1.02-9.935-5.3l-1.114.57c.452 1.91 1.106 3.56 1.882 5.35l-.504 1.34-1.041.02-.816-1.14-1.958 1.72-1.72-2.02c-8.286-1.5-17.11-.07-25.18-2.7-.112-1.09.258-1.71.645-2.72 2.132-.2 4.226-.24 6.365-.28l.12-1.6c-2.163-1.01-3.901-1.89-6.295-2.18l-2.012 2.07c-1.701.4-1.003.4-2.621.17-7.728-1.09-34.423-2.69-41.968-1.43l.102 2.04c-2.581 1.51-5.217-1.4-8.608-.66l-1.155 2.86-2.265.14c-.145-2.05.035-1.02-.57-3.08-7.628-1.47-19.61-3.78-27.145-2.19-2.192.46-2.788 1.91-3.901 3.67-.895 1.41-1.354 2.41-2.774 3.39-.268.18-.577.3-.865.45l1.109-.35-1.635.21c-1.764-2.96.771-3.6.154-6.75-4.252.25-10.477 1-13.852-1.9-.1-5.27-.22-10.37-1.074-15.6-.235-3.71-.077-7.53-.097-11.26l.917.23c1.675 2.34.87 3.38.448 6.09.968 2.2 1.305 1.97 3.3 3.09l2.02-.57.849-2.02c-.3-2.14-.549-3.77-.261-5.94.063-.47.166-.93.249-1.4"/><path fill="#29217a" d="M489.661 1209.23c3.64.36 6.936.75 10.561.13q-4.107-1.425-8.242-2.76c4.251-.3 11.473-1.89 14.963.22l.067 1.4c-1.525.47-3.031.93-4.525 1.49l18.205.06c5.238 1.27 10.991.47 16.497 1.64l-.714.06.472.53c-18.553.58-39.005 2.4-57.321-.4l.249-.67c3.264-.71 6.476-1.26 9.788-1.7m-28.734 2.09c3.512-.13 9.116-1.22 12.038.59l-2.43 2.7c-4.182-.54-8.321-.58-12.509-1.26l-.176-1zm-23.42-20.95 8.228-.17 1.7 1.73-2.788 1.67.389 1.19c2.27.24 4.432.35 6.715.32 2.197.08 1.468.17 3.298-.12 2.994-.47 5.123-.77 8.125-.26 3.205.56 6.392 1.21 9.61.58l5.164.64c.619-.29 1.592-.79 2.229-.96 2.142-.58 2.83-.01 4.697.94l2.126-.76c-.894 1.74-2.541 3.83-2.009 5.74 3.309-.68 6.389-1.28 9.773-1.32-1.666 2.03-1.972 2.75-4.78 2.96-5.009.38-9.889-3.11-15.167-2.13l-.156 1.34c4.233 3.22 12.021-.72 15.332 2.3-3.114 2.13-11.005 1.09-15.062 1.33l-2.277-1.19c-.507-1.96-.383-1.89.073-3.69-1.398 1.21-1.863 1.89-2.762 3.45-3.377 1.05-6.719 1.84-10.181 2.56-3.129 1.88-3.153 1.83-6.628 1-2.125-2.05-1.953-2.01-2.092-4.98l2.437-2.42-1.077-1.05c-5.027.75-14.329 2-18.872.06-1.045-1.56-1.842-2.57-2.024-4.5-.167-1.77-.476-1.66-1.691-2.96 2.594-.84 4.911-1.88 7.67-1.3"/><path fill="#2a2782" d="M432.514 1256.96c1.498-.55.974-.26 2.138-1 2.098-1.34 3.293-2.04 5.867-2.29 1.154 3.41.266 5.53-.778 8.79-1.972 1.72-2.182 2.19-4.748 2.43-1.923-1.01-3.395-1.65-4.651-3.47.411-.32.831-.62 1.234-.95 1.645-1.34 1.119-.7 1.938-2.51zm62.917-4.56q1.098-.015 2.196-.06c2.59-.13 4.6-.43 6.322-2.58 1.038-1.29 1.558-1.2 3.134-1.73l.73 3c-1.578 1.85-2.794 2.36-5.265 2.56-2.613.21-4.78-.04-7.117-1.19"/><path fill="#234b9a" d="M522.762 1158.04c5.172-3.66 29.715-2.25 37.115-.87 4.505.84 10.818 2.11 13.795 5.91l-.359 1.24c-3.075.15-7.675-.23-10.125 1.68q.973 1.665 1.919 3.36c-1.515 1.27-.633.87-2.674 1.14l-.471 3.49-1.542.98-1.625-.72.093-1.36c-1.782.95-3.442 1.74-5.36 2.38 2.438 1.48 4.724 2.91 6.922 4.75l-1.613 2.47c1.608.6 2.996 1.17 4.524 1.97l-.198 1.65-3.328.61.007 1.31c5.216 4.04 11.074 3.32 17.268 4.19-.619 1.49-.555 2.58-2.177 3.2-6.247 2.37-26.593-.52-27.755.14-.411.23-.498.8-.747 1.2l2.175 1.69c-.457 2.35-.559 2.28-2.428 3.61-7.432 5.3-23.144 2-31.701.52-1.415-.25-2.448-.74-3.643-1.51l2.399-1.12c-.479-.07-1.633-.25-2.065-.27-.637-.03-1.277 0-1.915 0l-.3-1 4.139-1.74c-4.022-1.1-10.501-.31-14.564.78 2.875.61 5.295 1.28 7.961 2.53l-.698.9c-1.096.11-1.542.22-2.751-.04-3.772-.81-6.281-2.23-8.51-5.21l-2.952.63c-2.389.36-2.552-.22-4.578-1.36l-2.126.76c-1.867-.95-2.555-1.52-4.697-.94-.637.17-1.61.67-2.229.96l-5.164-.64c-3.218.63-6.405-.02-9.61-.58-3.002-.51-5.131-.21-8.125.26-1.83.29-1.101.2-3.298.12a56 56 0 0 1-6.715-.32l-.389-1.19 2.788-1.67-1.7-1.73-8.228.17c.234-.36.418-.75.703-1.07 2.377-2.63 7.61-3.75 11.089-4.13.695 1.69.507 1.03.903 2.73.089.38.168.76.252 1.14l1.812-.59 2.354-5.38c2.803-1.08 4.428-.52 7.378-.01 3.754.66 6.002.5 9.738-.45-.507-1.33-1.451-3.29-1.498-4.7-.095-2.81.737-3.34 2.653-5.01 2.183.61 2.147.74 3.459 2.62 2.089 1.31 3.219 2.85 5.792 1.99.445-.15.829-.44 1.244-.66-.57-1.85-1.19-3.46-2.081-5.17-1.42-2.73-3.254-3.16-6.013-4.01l-.884-.26c2.527-1.69 4.801-3.42 7.875-3.86 2.99-.43 4.195-.88 6.013-3.29.378-.5.739-1.01 1.109-1.52 6.489-3.88 25.665-1.36 33.357-.7"/><path fill="#29217a" d="m544.658 1172.63 1.671.87c-.265 3.8-.865 5.97.781 9.45l1.376-.16c1.048-3.37.623-4.43-.103-7.81l3.577 1.02c-.217 2.92-.3 4.77.929 7.54 1.217-1.04 2.15-2.01 3.195-3.21 2.341.83 1.432.1 2.753 2.16 1.608.6 2.996 1.17 4.524 1.97l-.198 1.65-3.328.61.007 1.31c5.216 4.04 11.074 3.32 17.268 4.19-.619 1.49-.555 2.58-2.177 3.2-6.247 2.37-26.593-.52-27.755.14-.411.23-.498.8-.747 1.2l2.175 1.69c-.457 2.35-.559 2.28-2.428 3.61-7.432 5.3-23.144 2-31.701.52-1.415-.25-2.448-.74-3.643-1.51l2.399-1.12c-.479-.07-1.633-.25-2.065-.27-.637-.03-1.277 0-1.915 0l-.3-1 4.139-1.74c-4.022-1.1-10.501-.31-14.564.78 2.875.61 5.295 1.28 7.961 2.53l-.698.9c-1.096.11-1.542.22-2.751-.04-3.772-.81-6.281-2.23-8.51-5.21l-2.952.63-1.07-2.05 2.537-3.56c5.89-1.21 12.568 3.14 18.449.6l.646-2.83c1.647-.73 3.699 2.87 6.329 3.43 2.743-1.46 3.384-3.74 4.543-6.44-.503-.02-1.007-.11-1.508-.07-7.801.61-2.431-1.38-9.835-5.87.23.02.462.03.69.06 9.612 1.42 21.319 3.3 30.558-.57 1.734-2.15 1.63-3.99 1.741-6.6"/><path fill="#214695" d="M488.394 1176.31c2.275-2.31 2.502-3.09 5.815-3.49.362.27.722.54 1.087.8 2.301 1.64 3.189 2.38 6.106 1.9 4.734-.78 9.358-4.5 14.177-3.8.372 1.37.545 2.42.69 3.87 4.57-.88 8.361-2.39 13.008-1.26l1.51 2.21-2.63 2.61c-5.411-.95-10.441-3.44-15.524-.15-.341.22-.643.5-.964.74 7.404 4.49 2.034 6.48 9.835 5.87.501-.04 1.005.05 1.508.07-1.159 2.7-1.8 4.98-4.543 6.44-2.63-.56-4.682-4.16-6.329-3.43l-.646 2.83c-5.881 2.54-12.559-1.81-18.449-.6l-2.537 3.56 1.07 2.05c-2.389.36-2.552-.22-4.578-1.36l-2.126.76c-1.867-.95-2.555-1.52-4.697-.94-.637.17-1.61.67-2.229.96l-5.164-.64c-3.218.63-6.405-.02-9.61-.58-3.002-.51-5.131-.21-8.125.26-1.83.29-1.101.2-3.298.12a56 56 0 0 1-6.715-.32l-.389-1.19 2.788-1.67-1.7-1.73-8.228.17c.234-.36.418-.75.703-1.07 2.377-2.63 7.61-3.75 11.089-4.13.695 1.69.507 1.03.903 2.73.089.38.168.76.252 1.14l1.812-.59 2.354-5.38c2.803-1.08 4.428-.52 7.378-.01 3.754.66 6.002.5 9.738-.45l1.234.03c1.702-.16 2.593-.13 4.259.43.459.16.905.34 1.357.52l1.634-.77.253-3.04c8.26-2.06 18.809 3.98 27.228.93 1.473-.54 1.078-.54 1.802-2.11-4.864-2.58-13.985-.95-19.707-2.01-.468-.09-.935-.19-1.402-.28m1.011-17.57c6.489-3.88 25.665-1.36 33.357-.7l.986 2.97c-.488.83-.886 1.72-1.591 2.39-.864-1.22-1.865-2.28-2.858-3.39-2.607-.15-2.997.35-5.265 1.74l-.748-1.41c-7.921-.69-16.115-.55-24.05-.08z"/><path fill="#0fb1d7" d="M720.138 956.562c3.86-2.663 7.913-6.224 12.602-7.043l1.001 1.292c-1.561 6.539-5.609 13.133-8.606 19.177-1.129-1.687-.984-1.769-1.149-3.652.878-1.682 1.701-3.067 2.036-4.955.281-1.578-.624-2.069-1.509-3.29-2.157-.435-1.472-.157-3.252-.979-.378-.175-.749-.367-1.123-.55"/><path fill="#214695" d="M560.45 1180.02c3.288.21 5.963-.27 8.479 1.99l-.371 1.53c-1.812 1.04-3.361 2.03-5.395 2.57l.198-1.65c-1.528-.8-2.916-1.37-4.524-1.97z"/><path fill="#1f64a8" d="m552.256 1127.06.429-2.25 2.684-1.6c3.318.09 4.685 1.14 7.206 3.05l-1.173 1.38 2.148.51-.562 1.71-2.735 1.66-.026 1.22c5.204 1.43 19.202-1.89 22.07.39.112 2.05.088 2.89-1.035 4.64-2.393.66-2.317.63-4.547-.48l-.41-2.84-.444.95c-.524.12-1.076.15-1.572.35-.388.17-.685.49-1.027.74-1.401.86-2.308 1.36-3.939 1.58-5.269.74-22.715.99-26.509-1.59 1.587-.87.893-.7 2.71-.84.428-.03.858-.04 1.286-.06l.213-2.04c1.36-3.43 2.191-4.39 5.233-6.48"/><path fill="#214695" d="M547.023 1133.54c2.221-.18 4.524-.25 6.721-.6l1.032 2.45c6.008 1.5 12.336.19 18.486 1.1-1.401.86-2.308 1.36-3.939 1.58-5.269.74-22.715.99-26.509-1.59 1.587-.87.893-.7 2.71-.84.428-.03.858-.04 1.286-.06z"/><path fill="#234b9a" d="m552.256 1127.06 3.184-.26c1.397 2.04 1.959 3.41 2.417 5.84l-.104.11-2.291-1.84-1.091.23-.627 1.8c-2.197.35-4.5.42-6.721.6 1.36-3.43 2.191-4.39 5.233-6.48"/><path fill="#158ac1" d="M627.714 1060.63c2.987-.55 6.567 1.59 9.212 2.76 7.394 3.25 8.745-.65 15.553-3.29-.155.49-.299.99-.463 1.47-.202.61-.423 1.21-.635 1.81l4.03.56-1.054 1.2c-8.213 2.46-18.687.84-27.118.26-9.114 1.4-26.647 2.85-35.019-.9 4.998-2.91 25.929-.04 33.936-3.2.524-.21 1.039-.45 1.558-.67"/><path fill="#214695" d="M493.79 1148.5c10.246-.16 22.865-.73 32.63 2.29l-.629 1.29c-9.02-.52-18.594 1.07-27.484-.57-.326-.06-.65-.14-.977-.2-.999-.18-2.001-.35-2.998-.55z"/><path fill="#1f64a8" d="M465.066 1144.56c.992.1 1.983.23 2.978.29 2.411.16 3.429.06 5.429 1.53-2.648 1.77-6.563 1.32-9.656 1.36-3.601.74-6.479.96-10.134.52l.179-1.64-.998.45c1.922-1.37 3.046-1.85 5.414-2.01zm97.509-18.3 1.382-3.28c-1.532-1.5-1.827-1.67-3.749-2.29l2.504-2.56 2.273.19-1.127-1.49.771-.72.486 1.91c1.979 1.51 3.94 2.7 6.097 3.92-1.66 1.15-2.977 1.56-4.878 2.19l-2.784 4.02-2.148-.51z"/><path fill="#158ac1" d="M648.388 1067.49c3.239-.2 6.576-.16 9.811.07 4.624.33 7.973.56 11.078 4.21-.305 0-.611.01-.917 0-3.804-.16-17.725-1.85-19.972-4.28"/><path fill="#214695" d="M585.043 1141.39c5.108-.25 13.611-1.45 17.868 1.48l-.956 1.14c-4.954-.01-12.918.74-17.238-1.37z"/><path fill="#1f64a8" d="m577.834 1095.03 8.226 1.67c-3.648 1.94-5.596 1.55-9.662 1.32-2.7-.15-3.915.32-6.255 1.47l-.647-1.67c2.845-2.51 4.637-2.27 8.338-2.79"/><path fill="#197bb7" d="m570.143 1099.49-1.181 1.24c-.683.08-1.368.14-2.046.26-.485.08-.962.2-1.448.28-3.13.48-5.57.39-8.092-1.47l.652-1.2 8.31-1.33 1.235-3.31 1.923 3.86zm7.691-4.46c5.056-2.39 10.291-2.12 15.626-.77l.238.87c-2.1.58-4.097.95-6.24 1.3-.468.08-.932.18-1.398.27z"/><path fill="#214695" d="M597.878 1148.33c3.558-.08 6.931-.41 10.326.86l.087 1.48c-3.372.35-7.4 1.27-10.545-.15z"/><path fill="#234b9a" d="M609.217 1173.27c2.989-.05 5.771-.05 8.729.42l.718 1.93c-2.157-.18-4.259-.35-6.425-.32l-1.744.04z"/><path fill="url(#Gradient3)" d="M1393.55 1128.53c-5.85-11.09-10.72-22.93-15.91-34.36l-34.05-76.1c-6.16-13.6-28.09-56.984-30.13-67.556l.94-1.203c9.12 3.946 17.75 10.477 26.11 15.849a5339 5339 0 0 1 49.54 32.205c17.53 14.355 38.69 26.135 57.75 38.455 32.37 21.17 64.84 42.17 97.43 63 26.58 16.83 54.74 33.18 79.68 52.27-.21 18.79.28 37.86-.87 56.61.11 12.54.05 25.09-.17 37.63.43 7.71.31 15.42.24 23.14-.08 12.13.14 24.35-.3 36.48l.22 8.64.04 67.26c-9.63-5.1-24.65-16.99-34.25-19.33-10.29-4.07-20.91-12.84-30.24-19.03l-57.67-38.12c-12.2-8.14-24.51-17.48-37.63-24.05-9.15-15.84-16.17-33.06-23.76-49.69a6138 6138 0 0 1-34.47-75.19c12.3-10.67 28.34-19.2 41.94-28.3l8.84-6.91c-11.24.59-22.77 3.01-33.94 4.62-9.76 1.4-19.58 2.2-29.34 3.68"/><path fill="url(#Gradient2)" d="m1447.99 1127.14.14 2.3c-8.14 5.75-21.79 13.69-25.34 23.32.22 2.42.56 4.61 2.58 6.29 4.93 4.12 8 1.99 11.92 8.91l1.25.22c3.82-3.31 12.75-3.63 17.87-3.42 1.18.05 2.19.39 3.3.75l-.98 2.1c-1.69.55-2.5 1.12-4.26.75-1.32-.27-2.41-.33-3.76-.3l-1.9 1.44-.07 1.94c1.9 1.65 3.75 1.57 6.15 1.84l1.2 1.86c-.39.12-.77.28-1.17.37-3.74.84-7.09-.54-10.8.86l-.58 1.6c2.01 2.08 2.66 2.11 5.52 2.11 1.38 0 2.79-.14 4.17-.24l1.43 1.07c-1.68 1.64-4.02 1.4-6.31 1.7 1.18 3.19 3.01 2.53 3.53 6.39-2.86.23-3.21.2-5.43 1.98 1.9 1.42 3.7.26 5.21 1.88l-1.53 1.55c-2.56-.5-4.3-1.76-6.43-3.17-1.24.98-1.51 1.88-1.76 3.48-.08.51-.04 1.02-.06 1.53.36.21.72.41 1.07.62 1.39.83 2.64 1.75 3.93 2.73 2.43-1.23 4.1-2.86 6.9-1.34.44.24.74.67 1.11 1-1 1.78-2.22 2.81-3.75 4.14l.35 1.38c6.12 1.84 13.58 1.88 19.94 1.49l-.77-1.35c-3.47-.6-6.58-.47-10.09-.5-2.19-.01-1.37.09-3.48-.95.4-.46 1.02-1.34 1.52-1.65 4.71-.28 15.79 2 17.13 1.6 1.47-2.93 2.84-6.05 5.92-7.59.48-.24.98-.46 1.48-.69 6.9 1.68 10.5-.2 16.42-3.77l1.22-.75c2.02.43 1.36.12 3.02 1.06.36.21.71.43 1.07.65.57-.08 2.57-.36 3.07-.35 1.04.01 2.08.22 3.11.16.34-.02.69-.05 1.03-.08l.58-.06 2.96-2.24c7.29 3.97 41.24 3.21 50.01.6.37-.11.74-.24 1.11-.36l4.39-.03 1.04 3.03c-.74.78-1.33 1.45-2.25 2.02 1.75.44 3.02.62 4.85.63 1.86.02 2.56.22 4.18 1.06 3 .96 21.95-.49 26.12-1.07l.3-1.09c-7.55-.81-14.25.13-21.72 1.35-.89-1.82-.61-1.61-.12-3.43l7.56-2.86.54-1.33-.6 1.4-.84-2.21c-2.16-.68-1.25-.55-3.56-.63-.55-.02-1.1-.02-1.65-.03-.02-.47 5.08-2.08 6.33-3.67l-.49-1.76c-4.93-1.59-9.35-1.97-14.46-1.08l-.49.84 2.77 1.67c-1.95.5-4.42 1.46-6.4 1.56-.62.03-1.23-.11-1.85-.16l-2.39-2.54c.16-.28.28-.59.47-.85 1.32-1.87 3.58-3.06 5.79-3.56 4.55-1.03 15.51-1.11 19.39 1.49l3.16-.38 2.12.65 1.54-.81c5.47-2.84 13-4.96 19.12-3.22 2.31.66 2.66 1.34 4.01 3.18 1.26 9.93-3.31 19.39.44 29.53.11 12.54.05 25.09-.17 37.63.43 7.71.31 15.42.24 23.14-.08 12.13.14 24.35-.3 36.48l.22 8.64.04 67.26c-9.63-5.1-24.65-16.99-34.25-19.33-10.29-4.07-20.91-12.84-30.24-19.03l-57.67-38.12c-12.2-8.14-24.51-17.48-37.63-24.05-9.15-15.84-16.17-33.06-23.76-49.69a6138 6138 0 0 1-34.47-75.19c12.3-10.67 28.34-19.2 41.94-28.3"/><path fill="#29217a" d="m1596.81 1178.37 2.12.65 1.54-.81c5.47-2.84 13-4.96 19.12-3.22 2.31.66 2.66 1.34 4.01 3.18 1.26 9.93-3.31 19.39.44 29.53.11 12.54.05 25.09-.17 37.63.43 7.71.31 15.42.24 23.14-.08 12.13.14 24.35-.3 36.48l.22 8.64c-3.41-.81-5.63.17-8.76 1.4-1.97.79-4.06-.16-6.12-.62l-2.23-1.27c-1.29 2.65-2.2 4.43-5.01 5.41-.21-.34-.45-.66-.63-1.02-1.71-3.51-.62-6.88.32-10.38.75-2.8 1.21-3.93 3.19-6.12l.46-2.17c-2.34-.74-4.18-1.32-6.15-2.82-.5-.37-.98-.76-1.47-1.14-10.7-2.66-28.09-2.65-39.45-2.56.49-2.22.21-3.11-.67-5.18-4.01-1.75-8.51 1.74-13.03.14l-.43-1.23c3.33-2.07 7.31-2.51 11.1-3.26-3.39-.04-5.51-.54-8.54-2.1-.29-.15-.58-.3-.87-.46l-2.01-.93.61-1.57c1.9-.66 3.64-1.08 5.14-2.5.25-.23.45-.52.67-.78-6.73-.49-24.74 2.17-29.09-1.94l-.32-1.64c-.66-.1-1.34-.11-1.98-.29-6.01-1.68-13.2-2.9-18.85-5.5 2.35-3.01 14.21 1.55 18.76-.5.39-.18.75-.41 1.12-.62 1.68-.88 2.47-1.36 3.81-2.76-6.14-6.34-18.15-.63-25.74-4.78-.5-1.11-.81-1.92-.95-3.15-.03-.32-.04-.65-.07-.98l-2.32-.88c1.89-.42 3.76-.96 5.63-1.47-1.63-.94-2.36-1.21-4.3-1.27-1.91-.05-3.65-.17-5.54-.43 0-.63-.02-3.25.13-3.8.56-2.06 1.78-2.46 3.64-3.02 3.89-1.18 11.06-1.18 14.55.8l-.35 3.9c1.69-.87 3.33-1.5 5.11-2.16-1.9-1.86-1.36-.75-1.72-3.28l2.09-1.81c2.82-.41 5.51-.56 7.94-2.18l.05-1.88-4.95-4.83-1.89-.22-.79-1.34 1.05-.81-1.81-.93c-2.4.05-9.54.17-11.27 1.91-1.56 1.57-1.29 2.78-3.31 4.19-1.72-1.66-2.01-1.91-2.57-4.21.68-2.47 1.18-5.19 2.79-7.23 1.05-1.34 3.54-1.13 5.16-1.32l-.55-2.48c-2.49-.33-4.71-.4-6.75-2.04l.64-1.47c1.97-1.91 3.34-4.1 5.53-5.88l1.5 2.31 1.5-.34 1.58-2.71c-.6-1.22-1.13-2-2.05-3.03-.29-.34-.6-.66-.91-.98l.42-1.49 2.33.6c1.91-1.17.18-5.14 1.97-7.76l2.67-.46.62-2.27 2.96-2.24c7.29 3.97 41.24 3.21 50.01.6.37-.11.74-.24 1.11-.36l4.39-.03 1.04 3.03c-.74.78-1.33 1.45-2.25 2.02 1.75.44 3.02.62 4.85.63 1.86.02 2.56.22 4.18 1.06 3 .96 21.95-.49 26.12-1.07l.3-1.09c-7.55-.81-14.25.13-21.72 1.35-.89-1.82-.61-1.61-.12-3.43l7.56-2.86.54-1.33-.6 1.4-.84-2.21c-2.16-.68-1.25-.55-3.56-.63-.55-.02-1.1-.02-1.65-.03-.02-.47 5.08-2.08 6.33-3.67l-.49-1.76c-4.93-1.59-9.35-1.97-14.46-1.08l-.49.84 2.77 1.67c-1.95.5-4.42 1.46-6.4 1.56-.62.03-1.23-.11-1.85-.16l-2.39-2.54c.16-.28.28-.59.47-.85 1.32-1.87 3.58-3.06 5.79-3.56 4.55-1.03 15.51-1.11 19.39 1.49z"/><path fill="#2a2782" d="m1593.76 1256.81 1.6-1.24-3.08-2.82.69-1.61c2.34-.82 2.64-1.34 5.12-.64.81 2.06.78 2.9.22 5.04l2.45.14 1.82-3.02 4.82 1.32-.09-1.36c-1.79-.28-3.42-.44-5.23-.42-1.58-2.15-1.82-3.61-1.55-6.31.25-2.43.85-5.31 2.7-7.01 1.34 2.69 2.32 5.19 3.23 8.06l-1.18 2.35c3.09.65 7.29 1.03 9.78 2.97-1.26 3.43-4.27 2.24-4.95 5.47.72 1.21 1.39 2.35 2.28 3.46.1-.03.21-.04.3-.1 2.15-1.25 3.33-1.3 5.58-2.06 2.62-.88 3.15-1.82 4.54-4.02-.16-1.06-.35-2.12-.47-3.18-.3-2.67-.16-4.39 1.53-6.5.43 7.71.31 15.42.24 23.14-.08 12.13.14 24.35-.3 36.48l.22 8.64c-3.41-.81-5.63.17-8.76 1.4-1.97.79-4.06-.16-6.12-.62l-2.23-1.27c-1.29 2.65-2.2 4.43-5.01 5.41-.21-.34-.45-.66-.63-1.02-1.71-3.51-.62-6.88.32-10.38.75-2.8 1.21-3.93 3.19-6.12l.46-2.17c-2.34-.74-4.18-1.32-6.15-2.82-.5-.37-.98-.76-1.47-1.14-10.7-2.66-28.09-2.65-39.45-2.56.49-2.22.21-3.11-.67-5.18-4.01-1.75-8.51 1.74-13.03.14l-.43-1.23c3.33-2.07 7.31-2.51 11.1-3.26-3.39-.04-5.51-.54-8.54-2.1-.29-.15-.58-.3-.87-.46l-2.01-.93.61-1.57c1.9-.66 3.64-1.08 5.14-2.5.25-.23.45-.52.67-.78-6.73-.49-24.74 2.17-29.09-1.94l-.32-1.64c-.66-.1-1.34-.11-1.98-.29-6.01-1.68-13.2-2.9-18.85-5.5 2.35-3.01 14.21 1.55 18.76-.5.39-.18.75-.41 1.12-.62 6.4-.27 11.66-1.05 17.54 2.06l.38-.05 1.61-1.69c5.55-1.01 11.43-.37 17.05-.16 1.63-.5 2.47-1.04 3.86-1.98l-.44-1.07c-4.63.04-13.65.77-17.68-1.4 1.94-.66 1.42-.26 2.71-1.34 3.49-2.92 2.69-.16 6.5-.17l.72-2.25 2.29.27 4.27.53c2.21-1.27 3.96-2.07 6.47-2.73 1.6.53 2.83 1 4.52 1.08-.88-2.27-.71-1.15-.65-3.33l3.22-.71.29 1 3.03-.19.18-1.01c1.69-1.61 3.06-2.58 5.16-3.6.51 1.51.7 2.33.82 3.86 1.47-1.17 2.74-2.42 4.05-3.76 2.99-.79 4.77-.93 7.83-.56l.1 1.32-.83.91c-1.58 1.75-3.31 3.14-3.53 5.6 1.52.89 2.84 1.6 4.5 2.24"/><path fill="#29217a" d="M1594.33 1288.48c-.66-3.12-1.61-4.86-.24-7.8l1.38.03c1.38 3.3.75 4.46.07 7.89 2.72.32 6.28-.57 9.13-.71 4.31-.08 11.42-1.06 15.03 1.34.27 2.28.55 3.81-.34 5.97l-1-.26-.53-3.94-1.54-.7c-2.39 1.29-3.06 1.45-4.36 3.77 2.57 3.13 7.02 2.12 9.05 5.36-.34 1.33-.58 2.29-1.27 3.48l1.28 1.81 2.82.23.22 8.64c-3.41-.81-5.63.17-8.76 1.4-1.97.79-4.06-.16-6.12-.62l-2.23-1.27c-1.29 2.65-2.2 4.43-5.01 5.41-.21-.34-.45-.66-.63-1.02-1.71-3.51-.62-6.88.32-10.38.75-2.8 1.21-3.93 3.19-6.12 2.16 2.01 2.5 2.57 5.36 3.05-1.43-4.15-.98-8.05-.74-12.35-8.33-2.61-15.31 1.8-24.1-3.13l1.39-.45c2.15.55 3.8 1.01 6.04.65.53-.08 1.06-.19 1.59-.28m-73.27-15.99c17.68-1.25 39.89-1.3 57.6-.18l-.4 1.7c-1.74-.07-2.63-.43-4.16.49-7.15 1.05-14.7-.24-21.79.97l-1.28.24-.88-1.28c-6.73-.49-24.74 2.17-29.09-1.94"/><path fill="#282681" d="M1516.8 1229.96c.13-.47.18-.97.4-1.41 1.01-2.05 1.9-2.19 3.91-2.57l2.25 1.92-.43.21c1.87 1.36 3.77 1.8 5.95 2.48l.58 1.68-1.11 1.22-4.26.02-.42 1.09 1.77.99c6.63-.11 16.15 2.11 22.18-.67-.79-.97-1.6-1.91-2.42-2.85 1.97-.64 1.09-.61 3.14-.27 3.28.55 4.98 1.07 8.11-.32l.19-4.03c2.87-.94 3.07 2.71 10.54 1.24 3.84 1.24 4.56 2.51 6.65 5.78l3.69.33.27.92c-3.09 1.2-6.26 1.16-9.12 2.74l2.79.89.65 3.18 1.5.67c2.44-1.65 2.73-1.63 5.69-1.61l.6 1.19c-1.86 2.11-3.15 2.81-5.65 3.92-.77 1.43-1.55 2.77-2.09 4.3l-3.22.71c-.06 2.18-.23 1.06.65 3.33-1.69-.08-2.92-.55-4.52-1.08-2.51.66-4.26 1.46-6.47 2.73l-4.27-.53-2.29-.27-.72 2.25c-3.81.01-3.01-2.75-6.5.17-1.29 1.08-.77.68-2.71 1.34 4.03 2.17 13.05 1.44 17.68 1.4l.44 1.07c-1.39.94-2.23 1.48-3.86 1.98-5.62-.21-11.5-.85-17.05.16l-1.61 1.69-.38.05c-5.88-3.11-11.14-2.33-17.54-2.06 1.68-.88 2.47-1.36 3.81-2.76-6.14-6.34-18.15-.63-25.74-4.78-.5-1.11-.81-1.92-.95-3.15-.03-.32-.04-.65-.07-.98l-2.32-.88c1.89-.42 3.76-.96 5.63-1.47-1.63-.94-2.36-1.21-4.3-1.27-1.91-.05-3.65-.17-5.54-.43 0-.63-.02-3.25.13-3.8.56-2.06 1.78-2.46 3.64-3.02 3.89-1.18 11.06-1.18 14.55.8l-.35 3.9c1.69-.87 3.33-1.5 5.11-2.16-1.9-1.86-1.36-.75-1.72-3.28l2.09-1.81c2.82-.41 5.51-.56 7.94-2.18l.05-1.88z"/><path fill="#2a2782" d="M1505.54 1221.29c2.33.31 3.7.15 5.96-.52l1.8 2.74c2.27-.62 1.95-.74 3.27-2.49l-1.93-4.42 1.45-.75 2.42 2.28 1.15-.82-.03-2.76c4.67-2.93 9.22.52 13.99-1.28.12-1.63.1-3.15 0-4.78l1.08-.31c2.43 3.12 4.73 6.67 8.09 8.84 6.53.74 24.37 1.92 28.65 7.41.23.29.38.63.57.94l-.54 1.09-4.64.48.35 1.75c-7.47 1.47-7.67-2.18-10.54-1.24l-.19 4.03c-3.13 1.39-4.83.87-8.11.32-2.05-.34-1.17-.37-3.14.27.82.94 1.63 1.88 2.42 2.85-6.03 2.78-15.55.56-22.18.67l-1.77-.99.42-1.09 4.26-.02 1.11-1.22-.58-1.68c-2.18-.68-4.08-1.12-5.95-2.48l.43-.21-2.25-1.92c-2.01.38-2.9.52-3.91 2.57-.22.44-.27.94-.4 1.41l-1.89-.22-.79-1.34 1.05-.81-1.81-.93c-2.4.05-9.54.17-11.27 1.91-1.56 1.57-1.29 2.78-3.31 4.19-1.72-1.66-2.01-1.91-2.57-4.21.68-2.47 1.18-5.19 2.79-7.23 1.05-1.34 3.54-1.13 5.16-1.32l-.55-2.48c-2.49-.33-4.71-.4-6.75-2.04l.64-1.47c3.36.01 9.39-.79 12.11 1.21-.12 3.01-2.4 3.7-4.07 6.07"/><path fill="#29217a" d="M1558.18 1292.3c11.36-.09 28.75-.1 39.45 2.56-.71 2.64-.3 3.24-2.65 4.86-1.85-.99-3.09-1.81-5.24-1.91-1.6-.06-1.13-.01-2.51 1.13l.14 2.41c1.99.91 1.21.71 3.24 1.07.45.08.9.14 1.36.21-1.77.36-2.29.5-3.82 1.59l1.04 3-2.63 1.49c.1 1.66-.14 2.15-.78 3.64l-1.01.2c-1.33-5.14-.98-10.86-1.1-16.15-8.4-.44-16.98 1.55-24.87-2.05z"/><path fill="#2a2782" d="M1486.5 1272.34c3.9-.39 18.15-1.89 20.84.63 2.47 2.31 1.86 5.3 5.84 6.38 4.3 1.17 8.2-2.76 12.77-1.66l.48 1.29a85 85 0 0 0-7.18 3.81l-.08-1.79c-3.28.13-6.55-.57-9.82-.37-5.81.35-11.93 1.91-17.66 3.01-3.15-2.38-1.18-7.32-4.19-10.39-.31-.32-.67-.61-1-.91"/><path fill="#29217a" d="m1551.51 1300.2 3.14 1.45.65 1.85c-1.31 1.75-2.75 3.31-2.98 5.56-.14 1.33-.2 2.11-.62 3.39-1.51-.96-2.46-1.38-4.25-1.78-.54-.13-1.09-.22-1.64-.32l-6.42-.56c1.99-.4 3.82-1.04 5.69-1.8 3.94-1.6 4.84-4.15 6.43-7.79"/><path fill="#2a2782" d="m1502.93 1286.84 3.44 1.65c1.34 2.38 1.07 2.84.76 5.6-2.79-1.35-4.37-2.14-5.6-4.99z"/><path fill="#214695" d="M1507.44 1175.49c4.85-4.88 14.04-3.5 20.75-3.68 6.5.25 16.14-1.16 22.04 1.43l2.24 2.32c3.72-.46 6.2-1.01 9.56.88.49-.26.97-.52 1.46-.78 1.95-.99 1.13-.71 3.03-1.04l.4 1.34c-2.09 2.78-3.41 1.29-3.92 4.95 2.13-.04 2.97-.06 5 .76l2.39 2.54c.62.05 1.23.19 1.85.16 1.98-.1 4.45-1.06 6.4-1.56l-2.77-1.67.49-.84c5.11-.89 9.53-.51 14.46 1.08l.49 1.76c-1.25 1.59-6.35 3.2-6.33 3.67.55.01 1.1.01 1.65.03 2.31.08 1.4-.05 3.56.63l.84 2.21.6-1.4-.54 1.33-7.56 2.86c-.49 1.82-.77 1.61.12 3.43 7.47-1.22 14.17-2.16 21.72-1.35l-.3 1.09c-4.17.58-23.12 2.03-26.12 1.07-1.62-.84-2.32-1.04-4.18-1.06-1.83-.01-3.1-.19-4.85-.63.92-.57 1.51-1.24 2.25-2.02l-1.04-3.03-4.39.03c-.37.12-.74.25-1.11.36-8.77 2.61-42.72 3.37-50.01-.6l-2.96 2.24-.58.06c-.34.03-.69.06-1.03.08-1.03.06-2.07-.15-3.11-.16-.5-.01-2.5.27-3.07.35-.36-.22-.71-.44-1.07-.65-1.66-.94-1-.63-3.02-1.06l-1.22.75c-5.92 3.57-9.52 5.45-16.42 3.77-.5.23-1 .45-1.48.69-3.08 1.54-4.45 4.66-5.92 7.59-1.34.4-12.42-1.88-17.13-1.6-.5.31-1.12 1.19-1.52 1.65 2.11 1.04 1.29.94 3.48.95 3.51.03 6.62-.1 10.09.5l.77 1.35c-6.36.39-13.82.35-19.94-1.49l-.35-1.38c1.53-1.33 2.75-2.36 3.75-4.14-.37-.33-.67-.76-1.11-1-2.8-1.52-4.47.11-6.9 1.34-1.29-.98-2.54-1.9-3.93-2.73-.35-.21-.71-.41-1.07-.62.02-.51-.02-1.02.06-1.53.25-1.6.52-2.5 1.76-3.48 2.13 1.41 3.87 2.67 6.43 3.17l1.53-1.55c-1.51-1.62-3.31-.46-5.21-1.88 2.22-1.78 2.57-1.75 5.43-1.98 1.55 1.94.58 1.25 2.91 2.08l3.05-3.18 1.15-.01 1.61 3.24 1.65.23c1-1.76 1.77-2.79 3.37-4.04 2.59-.47 4.01.52 6.2 1.7l.9.5c1.73-.58 3.34-1.07 5.14-1.39 1.4-.25 2.73-.52 4.11-.87-2.61-1.81-6.85-.68-10.07-1.72l-.45-1.59c1.85-1.42 7.07-.25 9.56-.01.76-1.62.56-1.07 1.06-2.55.11-.31.2-.62.3-.93l2.07-.09 2.19 3c1.95-.58 3.88-1.23 5.81-1.88l1.86 1.19-.24 1.1-3.47 1.16c1.93 1.4 1.89 1.22 4.28.88 2.53-1.93 3.15-3.95 4.21-6.81 5.85 2.28 10.76 1.23 16.56 2.55l1.36-1.72c-.81-.25-1.57-.74-2.31-1.13l1.83-2.33-1.19-.98c-3.12 1.08-4.89 1.44-7.89.09"/><path fill="#29217a" d="m1458.61 1201.82 3.24-2.24c.02-.35.1-.7.06-1.05-.28-2.65-.73-1.17.05-2.9 4.94-1.37 10.31 2.85 13.96 1.95 2.02-.5 3.2-3.03 6.16-3.64l1.06 1.2c-.5.23-1 .45-1.48.69-3.08 1.54-4.45 4.66-5.92 7.59-1.34.4-12.42-1.88-17.13-1.6"/><path fill="#234b9a" d="m1550.23 1173.24 2.24 2.32c-2.5 1.08-5.67 3.02-8.42 2.38-7.78.12-14.84-.41-22.42-2.36 4.32-3.09 21.18-.82 27.76-2.15.28-.06.56-.13.84-.19"/><path fill="#234b9a" d="m1493.12 1155.51 1.35 2.27c.54-.2 1.08-.43 1.62-.62 1.74-.62 2.56-.78 4.33-.66l2.23 1.5c5.47-1.8 10.39-2.42 16.05-1.11 5.32.33 24.85-1.7 27.61.26l-.22.92 1.59 1.98c4.33-.41 8.94-1.61 12.89.28l.36 1.51c-1.76 1.5-2.08 1.79-4.54 1.41-1.2-.18-2.76-.92-3.85-1.33-2.33 1.12-1.4.36-2.89 2.17l-2.78-1.88c-1.93.29-3.43.9-5.21 1.69l-3.97-.93c-2.02.61-2.28.69-4.29.1-1.92 2.7-8.27 4.61-8.31 6.51l3.1 2.23c-6.71.18-15.9-1.2-20.75 3.68 3 1.35 4.77.99 7.89-.09l1.19.98-1.83 2.33c.74.39 1.5.88 2.31 1.13l-1.36 1.72c-5.8-1.32-10.71-.27-16.56-2.55-1.06 2.86-1.68 4.88-4.21 6.81-2.39.34-2.35.52-4.28-.88l3.47-1.16.24-1.1-1.86-1.19c-1.93.65-3.86 1.3-5.81 1.88l-2.19-3-2.07.09c-.1.31-.19.62-.3.93-.5 1.48-.3.93-1.06 2.55-2.49-.24-7.71-1.41-9.56.01l.45 1.59c3.22 1.04 7.46-.09 10.07 1.72-1.38.35-2.71.62-4.11.87-1.8.32-3.41.81-5.14 1.39l-.9-.5c-2.19-1.18-3.61-2.17-6.2-1.7-1.6 1.25-2.37 2.28-3.37 4.04l-1.65-.23-1.61-3.24-1.15.01-3.05 3.18c-2.33-.83-1.36-.14-2.91-2.08-.52-3.86-2.35-3.2-3.53-6.39 2.29-.3 4.63-.06 6.31-1.7l-1.43-1.07c-1.38.1-2.79.24-4.17.24-2.86 0-3.51-.03-5.52-2.11l.58-1.6c3.71-1.4 7.06-.02 10.8-.86.4-.09.78-.25 1.17-.37l-1.2-1.86c-2.4-.27-4.25-.19-6.15-1.84l.07-1.94 1.9-1.44c1.35-.03 2.44.03 3.76.3 1.76.37 2.57-.2 4.26-.75l.98-2.1c7.82.04 19.2-2.95 26.44-.83.64.18 1.25.41 1.88.62l1.17-.89c-.86-1.31-1.57-2.22-1.76-3.82-.15-1.38.64-1.74 1.46-2.73 1.46-1.1 2.56-1.64 4.22-2.35"/><path fill="#214695" d="M1476.99 1149.12c-1.1 1.85-1.45 2.65-3.32 3.81-1.29-2.69-2.43-5.33-3.48-8.12.22-1.52.09-2.62 1.14-3.84 2.3-2.66 6.03-3.35 9.38-3.6 2.91-.22 5.45-.12 7.74 1.75l-.49 1.11-4.2.45c.39 2.89 1 5.2-.49 7.89 2.41.71 3.22 1.13 5.63.57l1.29-2.19c2.68-1.53 3.31-1.43 6.45-1.34l-2.59-1.77-.01-1.28c2.83-1.44 5.04-1.34 8.11-1.29 1.19 2.19 1.28 3.78 1.48 6.21-1.85 1.81-3.77 2.21-6.19 2.88l-3.24 3.47c8.92-2.87 19.41 1.79 29.05-.62l1.65-2.87c5.61-3.64 14.01-2.49 20.31-1.01 1.17.27 1.87.54 3.06.94l-.29.94c-2.6.54-5.01.53-7.64.5-2.1 2.61-2.82 3.77-6.25 4.16-5.13.6-10.31-.37-15.39 1.02-5.66-1.31-10.58-.69-16.05 1.11l-2.23-1.5c-1.77-.12-2.59.04-4.33.66-.54.19-1.08.42-1.62.62l-1.35-2.27c-1.66.71-2.76 1.25-4.22 2.35-1.6-2.2-1.3-2.22-.9-4.95-1.36-.61-.74-.42-2.18-.72-3.28-.67-5.84-1.55-8.83-3.07m64.67 14.78c1.78-.79 3.28-1.4 5.21-1.69l2.78 1.88-2.7 2.86c-3.04.79-5.43 1.27-8.58 1.08l-.68-1.36zm51.99 14.85-.4-3.86-1.26-.7-3.9 1.76-.76-1.22.55-2.12c3.6-.41 5.89-.39 9.36.7l.9 1.59c-.39 1.18-.67 2.41-1.33 3.47z"/><path fill="#158ac1" d="m1395.3 1067.3-1.85-2.67c2.84-1.52 25.37-.47 29.02.62 1.01.3 1.26.56 2.01 1.11l-4.97 1.54c3.01.69 5.9 1.23 8.98 1.54-7.68.34-15.34.6-23.03.59l-1.08 1.6.54 1.38 2.5.7-.02 1.09c-.04 3.08.12 5.24 1.15 8.15l1.53-.14c-.85.41-1.18.61-2.2.82-4.43.9-14.55 1.63-18.12-1.02l.17-2.4c-1.31-.38-.49-.07-2.3-1.26l1.3-1.15c2.75.28 4.31.54 6.92-.63l.38-1.16c-.88-.12-2.71-.34-3.51-.61-2.41-.81-2.46-2.29-3.25-4.45-2.37-1.95-4.47-.35-7.49-1.39l-.23-1.34c1.65-.94 2.68-1 4.51-.92 3.03.13 6.01.08 9.04 0"/><path fill="#197bb7" d="M1389.93 1080.21c6.64 1.14 12.79-.43 18.62 2.74l1.53-.14c-.85.41-1.18.61-2.2.82-4.43.9-14.55 1.63-18.12-1.02z"/><path fill="#234b9a" d="M1486.91 1123.27c6.86-.17 13.03-.52 19.58 1.84l-.86.09c3.08 1.16 5.7 1.98 8.03 4.42l-.88 1.45-5.13 1.08c-1.2.54-2.34 1.06-3.64 1.32-3.68.75-12.61 1.96-15.78-.01 2.32-2.16 6.5-1.48 9.69-1.56l1-1.37-.7-1.94c-3.52-1.85-7.35-1.37-10.88-2.95z"/><path fill="#197bb7" d="m1374.08 1041.1-3.73.62 1.29-1.06c-1.82-.59-1.11-.43-2.92-.75-.41-.07-.83-.14-1.24-.2.41-.18.81-.38 1.23-.54 7.05-2.58 23.68-2.81 30.55.28 2.17 1.35 2.12 1.34 2.88 3.79l-.74.99c-1.61-.33-3.19-.65-4.78-1.11-6.81-1.97-14.24-1.29-21.22-.28zm81.36 41.06c3.48 1.7 4.52 1.8 8.46 1.58 3.61-.2 8.66-1 11.54 1.59l-.76 1.53c-6.46-.57-18.03 2.47-23.24-1.44l.43-1.71zm-16.99-1.5c4.15.53 7.59-1.48 11.24 1.02l-.09 2.78-2.17-1.81-1.55.93c-5.74.19-11.8 2.45-17.24-.3l1.29-1.14c2.45.02 4.81.15 7.1-.83.48-.21.94-.43 1.42-.65"/><path fill="#1f64a8" d="M1520.14 1119.5c3.6-.35 6.85-.16 10.44.19l.41 1.73-.57.79c-3.18.12-6.01-.19-9.16-.69z"/><path fill="#197bb7" d="M1372.64 1044.89c.91 1.35 1.4 1.95 2.85 2.77.47.27.98.49 1.44.78 1.85 1.19 2.64 1.52 3.12 3.64-1.15-.09-2.34-.14-3.48-.39-2.88-.61-4.3-.82-6.01-3.21z"/><path fill="#214695" d="m1515.05 1134.29.54.41.2 1.79 4.15 2.7-.35.84c-2.9.05-5.62-.02-8.5-.3l-.23-1.17z"/><path fill="#197bb7" d="M1398.71 1092.44c1.75-.13 2.29-.08 3.89.38-.91 2.16-2.24 2.54-4.15 3.78l-6.25-1.97z"/><path fill="#214695" d="M1545.65 1140.59c1.82-.3 3.2-.25 5.02.01l.15 1.83c-1.95.27-3.46.3-5.41.01z"/><path fill="url(#Gradient1)" d="M1152.5 848.053c12.86 16.813 23.97 35.343 35.48 53.119l44.22 67.014 83.79 127.284c10.86 16.45 22.57 32.48 33.07 49.13 4.95 7.85 15.71 21.46 16.89 30.6l1.61 1.58-1.02.55c-8.01-4.55-15.39-11.72-22.26-17.88-60.55-54.33-119.01-111.18-178.9-166.274l-54-49.126c-7.99-7.23-24.1-19.556-29.54-28.11-2.02-5.473-3.07-9.4-2.48-15.235l1.95-.553-.33-.738c.7.956 1.36 1.936 2.02 2.916l2.78-.938-.11-2.109c2.39-3.046 3.6-2.585 7.33-3.187 2.84 2.68 4.26 3.426 8.16 3.904l.77.994c.6-.042 1.19-.094 1.79-.126 2.41-.128 1.45-.209 3.6.331l-2.43 3.311c2.18 1.678 5.9 1.25 8.6.85 3.21-.476 5.01-2.055 7.31-4.202 2.01.932 1.89.539 3.03 2.699l.84.396c1.03.491 2 1.026 2.99 1.584l1.37-1.587 7.36.415c.78-.809 2.27-1.303 3.3-1.615 1.48-.446 1.67-1.001 2.69-2.139 1.83-.53 3.79-1.209 5.72-.951 1.92.259 2.92.636 4.93.279.48-.085.95-.225 1.42-.337 4.06 0 7.73-.195 11.71-1.03 3.03-1.919 7.31-.726 10.93-2.986 4.62-10.25-24.65-35.109-24.59-47.833"/><path fill="#0fb1d7" d="M1093 896.096c2.84 2.68 4.26 3.426 8.16 3.904l-1.4 3.747c-5.16 1.986-11.76.352-16.76-1.417l2.78-.938-.11-2.109c2.39-3.046 3.6-2.585 7.33-3.187m34.66 9.741 1.37-1.587 7.36.415c2.82.213 5.02-.284 7.1 1.743-1.75 1.82-4.55 2.245-6.99 2.351-2.69.114-5.36-.429-7.79-1.583zm30.89-.311c5.5-.764 13.27-1.225 18.26 1.394l-.11 1.928c-2.15.464-5.01 1.375-7.18.795-3.64-.973-7.35-2.889-10.97-4.117"/><path fill="#158ac1" d="M1187.53 982.435c2.84-.286 5.02-.704 7.68.631l-.65 1.347-4.7 1.143-9.32-1.833c1.08-1.143 5.3-1.089 6.99-1.288"/><path fill="#0fb1d7" d="M1135.74 914.625c2.26-.29 4.39-.651 6.67-.247 1.88.335 2.22 1.849 3.23 3.343-2.94-.749-5.93-.762-8.95-.899z"/><path fill="#2a2782" d="M701.434 1140.17c.737 7.53-21.608 31.74-19.697 35.22.327.6.913 1.01 1.369 1.51l-1.45 3.01c3.583 6.58 18.561 13.75 24.958 18.04-28.636 19.9-58.327 40.72-88.488 58.19 7.593-9.5 13.873-20.14 20.531-30.3a2346 2346 0 0 0 32.409-50.17l7.692-2.89c7.796-10.57 14.276-22.62 22.676-32.61"/><path d="M1374.63 1174.75c6.11 5.81 11.64 16.68 16.34 23.91 13.08 20.11 25.3 40.56 40.95 58.79l-.75.27c-6.66-2.7-12.79-7.51-18.75-11.53-24.61-16.05-49-32.46-73.14-49.22 11.83-6.6 24.4-14.24 35.35-22.22"/><path fill="#2a2782" d="M1372.34 1178.83c.22.04.44.07.66.14 5.07 1.48 40.86 59.31 45.61 67.33-5.89-3.22-11.52-6.77-17.17-10.41-19.26-12.31-38.89-24.89-57.27-38.47 8.76-6.94 19.07-12.03 28.17-18.59"/><path fill-opacity=".988" d="M1390.05 997.365c15.95 7.275 31.33 19.095 46.06 28.755l71.58 46.41 79.73 50.94c13.04 8.37 27.29 16.25 39.33 25.92 2.69 19.51.74 52.66.7 73.7-.09 54.97-.9 110.08.75 165.03-11.08-7.52-29.43-17.55-38.38-26.6 9.6 2.34 24.62 14.23 34.25 19.33l-.04-67.26-.22-8.64c.44-12.13.22-24.35.3-36.48.07-7.72.19-15.43-.24-23.14.22-12.54.28-25.09.17-37.63 1.15-18.75.66-37.82.87-56.61-24.94-19.09-53.1-35.44-79.68-52.27-32.59-20.83-65.06-41.83-97.43-63-19.06-12.32-40.22-24.1-57.75-38.455"/><path fill="#0fb1d7" fill-opacity=".988" d="M1107.32 901.199c5.75.114 6.45-4.64 12.52-1.918l.96 1.877c-2.3 2.147-4.1 3.726-7.31 4.202-2.7.4-6.42.828-8.6-.85z"/></svg>